<?xml version="1.0" encoding="utf-8" standalone="no"?>
<!DOCTYPE svg PUBLIC "-//W3C//DTD SVG 1.1//EN"
  "http://www.w3.org/Graphics/SVG/1.1/DTD/svg11.dtd">
<svg xmlns:xlink="http://www.w3.org/1999/xlink" width="460.8pt" height="345.6pt" viewBox="0 0 460.8 345.6" xmlns="http://www.w3.org/2000/svg" version="1.1">
 <metadata>
  <rdf:RDF xmlns:dc="http://purl.org/dc/elements/1.1/" xmlns:cc="http://creativecommons.org/ns#" xmlns:rdf="http://www.w3.org/1999/02/22-rdf-syntax-ns#">
   <cc:Work>
    <dc:type rdf:resource="http://purl.org/dc/dcmitype/StillImage"/>
    <dc:date>2022-12-01T14:40:25.814081</dc:date>
    <dc:format>image/svg+xml</dc:format>
    <dc:creator>
     <cc:Agent>
      <dc:title>Matplotlib v3.5.0, https://matplotlib.org/</dc:title>
     </cc:Agent>
    </dc:creator>
   </cc:Work>
  </rdf:RDF>
 </metadata>
 <defs>
  <style type="text/css">*{stroke-linejoin: round; stroke-linecap: butt}</style>
 </defs>
 <g id="figure_1">
  <g id="patch_1">
   <path d="M 0 345.6 
L 460.8 345.6 
L 460.8 0 
L 0 0 
z
" style="fill: #ffffff"/>
  </g>
  <g id="axes_1">
   <g id="patch_2">
    <path d="M 57.6 307.584 
L 414.72 307.584 
L 414.72 41.472 
L 57.6 41.472 
z
" style="fill: #ffffff"/>
   </g>
   <g id="matplotlib.axis_1">
    <g id="xtick_1">
     <g id="line2d_1">
      <defs>
       <path id="m2d4733129a" d="M 0 0 
L 0 3.5 
" style="stroke: #000000; stroke-width: 0.8"/>
      </defs>
      <g>
       <use xlink:href="#m2d4733129a" x="73.832727" y="307.584" style="stroke: #000000; stroke-width: 0.8"/>
      </g>
     </g>
     <g id="text_1">
      <!-- 0 -->
      <g transform="translate(70.651477 322.182437)scale(0.1 -0.1)">
       <defs>
        <path id="DejaVuSans-30" d="M 2034 4250 
Q 1547 4250 1301 3770 
Q 1056 3291 1056 2328 
Q 1056 1369 1301 889 
Q 1547 409 2034 409 
Q 2525 409 2770 889 
Q 3016 1369 3016 2328 
Q 3016 3291 2770 3770 
Q 2525 4250 2034 4250 
z
M 2034 4750 
Q 2819 4750 3233 4129 
Q 3647 3509 3647 2328 
Q 3647 1150 3233 529 
Q 2819 -91 2034 -91 
Q 1250 -91 836 529 
Q 422 1150 422 2328 
Q 422 3509 836 4129 
Q 1250 4750 2034 4750 
z
" transform="scale(0.015625)"/>
       </defs>
       <use xlink:href="#DejaVuSans-30"/>
      </g>
     </g>
    </g>
    <g id="xtick_2">
     <g id="line2d_2">
      <g>
       <use xlink:href="#m2d4733129a" x="141.469091" y="307.584" style="stroke: #000000; stroke-width: 0.8"/>
      </g>
     </g>
     <g id="text_2">
      <!-- 5 -->
      <g transform="translate(138.287841 322.182437)scale(0.1 -0.1)">
       <defs>
        <path id="DejaVuSans-35" d="M 691 4666 
L 3169 4666 
L 3169 4134 
L 1269 4134 
L 1269 2991 
Q 1406 3038 1543 3061 
Q 1681 3084 1819 3084 
Q 2600 3084 3056 2656 
Q 3513 2228 3513 1497 
Q 3513 744 3044 326 
Q 2575 -91 1722 -91 
Q 1428 -91 1123 -41 
Q 819 9 494 109 
L 494 744 
Q 775 591 1075 516 
Q 1375 441 1709 441 
Q 2250 441 2565 725 
Q 2881 1009 2881 1497 
Q 2881 1984 2565 2268 
Q 2250 2553 1709 2553 
Q 1456 2553 1204 2497 
Q 953 2441 691 2322 
L 691 4666 
z
" transform="scale(0.015625)"/>
       </defs>
       <use xlink:href="#DejaVuSans-35"/>
      </g>
     </g>
    </g>
    <g id="xtick_3">
     <g id="line2d_3">
      <g>
       <use xlink:href="#m2d4733129a" x="209.105455" y="307.584" style="stroke: #000000; stroke-width: 0.8"/>
      </g>
     </g>
     <g id="text_3">
      <!-- 10 -->
      <g transform="translate(202.742955 322.182437)scale(0.1 -0.1)">
       <defs>
        <path id="DejaVuSans-31" d="M 794 531 
L 1825 531 
L 1825 4091 
L 703 3866 
L 703 4441 
L 1819 4666 
L 2450 4666 
L 2450 531 
L 3481 531 
L 3481 0 
L 794 0 
L 794 531 
z
" transform="scale(0.015625)"/>
       </defs>
       <use xlink:href="#DejaVuSans-31"/>
       <use xlink:href="#DejaVuSans-30" x="63.623047"/>
      </g>
     </g>
    </g>
    <g id="xtick_4">
     <g id="line2d_4">
      <g>
       <use xlink:href="#m2d4733129a" x="276.741818" y="307.584" style="stroke: #000000; stroke-width: 0.8"/>
      </g>
     </g>
     <g id="text_4">
      <!-- 15 -->
      <g transform="translate(270.379318 322.182437)scale(0.1 -0.1)">
       <use xlink:href="#DejaVuSans-31"/>
       <use xlink:href="#DejaVuSans-35" x="63.623047"/>
      </g>
     </g>
    </g>
    <g id="xtick_5">
     <g id="line2d_5">
      <g>
       <use xlink:href="#m2d4733129a" x="344.378182" y="307.584" style="stroke: #000000; stroke-width: 0.8"/>
      </g>
     </g>
     <g id="text_5">
      <!-- 20 -->
      <g transform="translate(338.015682 322.182437)scale(0.1 -0.1)">
       <defs>
        <path id="DejaVuSans-32" d="M 1228 531 
L 3431 531 
L 3431 0 
L 469 0 
L 469 531 
Q 828 903 1448 1529 
Q 2069 2156 2228 2338 
Q 2531 2678 2651 2914 
Q 2772 3150 2772 3378 
Q 2772 3750 2511 3984 
Q 2250 4219 1831 4219 
Q 1534 4219 1204 4116 
Q 875 4013 500 3803 
L 500 4441 
Q 881 4594 1212 4672 
Q 1544 4750 1819 4750 
Q 2544 4750 2975 4387 
Q 3406 4025 3406 3419 
Q 3406 3131 3298 2873 
Q 3191 2616 2906 2266 
Q 2828 2175 2409 1742 
Q 1991 1309 1228 531 
z
" transform="scale(0.015625)"/>
       </defs>
       <use xlink:href="#DejaVuSans-32"/>
       <use xlink:href="#DejaVuSans-30" x="63.623047"/>
      </g>
     </g>
    </g>
    <g id="xtick_6">
     <g id="line2d_6">
      <g>
       <use xlink:href="#m2d4733129a" x="412.014545" y="307.584" style="stroke: #000000; stroke-width: 0.8"/>
      </g>
     </g>
     <g id="text_6">
      <!-- 25 -->
      <g transform="translate(405.652045 322.182437)scale(0.1 -0.1)">
       <use xlink:href="#DejaVuSans-32"/>
       <use xlink:href="#DejaVuSans-35" x="63.623047"/>
      </g>
     </g>
    </g>
    <g id="text_7">
     <!-- time(hours) -->
     <g transform="translate(206.905312 335.860562)scale(0.1 -0.1)">
      <defs>
       <path id="DejaVuSans-74" d="M 1172 4494 
L 1172 3500 
L 2356 3500 
L 2356 3053 
L 1172 3053 
L 1172 1153 
Q 1172 725 1289 603 
Q 1406 481 1766 481 
L 2356 481 
L 2356 0 
L 1766 0 
Q 1100 0 847 248 
Q 594 497 594 1153 
L 594 3053 
L 172 3053 
L 172 3500 
L 594 3500 
L 594 4494 
L 1172 4494 
z
" transform="scale(0.015625)"/>
       <path id="DejaVuSans-69" d="M 603 3500 
L 1178 3500 
L 1178 0 
L 603 0 
L 603 3500 
z
M 603 4863 
L 1178 4863 
L 1178 4134 
L 603 4134 
L 603 4863 
z
" transform="scale(0.015625)"/>
       <path id="DejaVuSans-6d" d="M 3328 2828 
Q 3544 3216 3844 3400 
Q 4144 3584 4550 3584 
Q 5097 3584 5394 3201 
Q 5691 2819 5691 2113 
L 5691 0 
L 5113 0 
L 5113 2094 
Q 5113 2597 4934 2840 
Q 4756 3084 4391 3084 
Q 3944 3084 3684 2787 
Q 3425 2491 3425 1978 
L 3425 0 
L 2847 0 
L 2847 2094 
Q 2847 2600 2669 2842 
Q 2491 3084 2119 3084 
Q 1678 3084 1418 2786 
Q 1159 2488 1159 1978 
L 1159 0 
L 581 0 
L 581 3500 
L 1159 3500 
L 1159 2956 
Q 1356 3278 1631 3431 
Q 1906 3584 2284 3584 
Q 2666 3584 2933 3390 
Q 3200 3197 3328 2828 
z
" transform="scale(0.015625)"/>
       <path id="DejaVuSans-65" d="M 3597 1894 
L 3597 1613 
L 953 1613 
Q 991 1019 1311 708 
Q 1631 397 2203 397 
Q 2534 397 2845 478 
Q 3156 559 3463 722 
L 3463 178 
Q 3153 47 2828 -22 
Q 2503 -91 2169 -91 
Q 1331 -91 842 396 
Q 353 884 353 1716 
Q 353 2575 817 3079 
Q 1281 3584 2069 3584 
Q 2775 3584 3186 3129 
Q 3597 2675 3597 1894 
z
M 3022 2063 
Q 3016 2534 2758 2815 
Q 2500 3097 2075 3097 
Q 1594 3097 1305 2825 
Q 1016 2553 972 2059 
L 3022 2063 
z
" transform="scale(0.015625)"/>
       <path id="DejaVuSans-28" d="M 1984 4856 
Q 1566 4138 1362 3434 
Q 1159 2731 1159 2009 
Q 1159 1288 1364 580 
Q 1569 -128 1984 -844 
L 1484 -844 
Q 1016 -109 783 600 
Q 550 1309 550 2009 
Q 550 2706 781 3412 
Q 1013 4119 1484 4856 
L 1984 4856 
z
" transform="scale(0.015625)"/>
       <path id="DejaVuSans-68" d="M 3513 2113 
L 3513 0 
L 2938 0 
L 2938 2094 
Q 2938 2591 2744 2837 
Q 2550 3084 2163 3084 
Q 1697 3084 1428 2787 
Q 1159 2491 1159 1978 
L 1159 0 
L 581 0 
L 581 4863 
L 1159 4863 
L 1159 2956 
Q 1366 3272 1645 3428 
Q 1925 3584 2291 3584 
Q 2894 3584 3203 3211 
Q 3513 2838 3513 2113 
z
" transform="scale(0.015625)"/>
       <path id="DejaVuSans-6f" d="M 1959 3097 
Q 1497 3097 1228 2736 
Q 959 2375 959 1747 
Q 959 1119 1226 758 
Q 1494 397 1959 397 
Q 2419 397 2687 759 
Q 2956 1122 2956 1747 
Q 2956 2369 2687 2733 
Q 2419 3097 1959 3097 
z
M 1959 3584 
Q 2709 3584 3137 3096 
Q 3566 2609 3566 1747 
Q 3566 888 3137 398 
Q 2709 -91 1959 -91 
Q 1206 -91 779 398 
Q 353 888 353 1747 
Q 353 2609 779 3096 
Q 1206 3584 1959 3584 
z
" transform="scale(0.015625)"/>
       <path id="DejaVuSans-75" d="M 544 1381 
L 544 3500 
L 1119 3500 
L 1119 1403 
Q 1119 906 1312 657 
Q 1506 409 1894 409 
Q 2359 409 2629 706 
Q 2900 1003 2900 1516 
L 2900 3500 
L 3475 3500 
L 3475 0 
L 2900 0 
L 2900 538 
Q 2691 219 2414 64 
Q 2138 -91 1772 -91 
Q 1169 -91 856 284 
Q 544 659 544 1381 
z
M 1991 3584 
L 1991 3584 
z
" transform="scale(0.015625)"/>
       <path id="DejaVuSans-72" d="M 2631 2963 
Q 2534 3019 2420 3045 
Q 2306 3072 2169 3072 
Q 1681 3072 1420 2755 
Q 1159 2438 1159 1844 
L 1159 0 
L 581 0 
L 581 3500 
L 1159 3500 
L 1159 2956 
Q 1341 3275 1631 3429 
Q 1922 3584 2338 3584 
Q 2397 3584 2469 3576 
Q 2541 3569 2628 3553 
L 2631 2963 
z
" transform="scale(0.015625)"/>
       <path id="DejaVuSans-73" d="M 2834 3397 
L 2834 2853 
Q 2591 2978 2328 3040 
Q 2066 3103 1784 3103 
Q 1356 3103 1142 2972 
Q 928 2841 928 2578 
Q 928 2378 1081 2264 
Q 1234 2150 1697 2047 
L 1894 2003 
Q 2506 1872 2764 1633 
Q 3022 1394 3022 966 
Q 3022 478 2636 193 
Q 2250 -91 1575 -91 
Q 1294 -91 989 -36 
Q 684 19 347 128 
L 347 722 
Q 666 556 975 473 
Q 1284 391 1588 391 
Q 1994 391 2212 530 
Q 2431 669 2431 922 
Q 2431 1156 2273 1281 
Q 2116 1406 1581 1522 
L 1381 1569 
Q 847 1681 609 1914 
Q 372 2147 372 2553 
Q 372 3047 722 3315 
Q 1072 3584 1716 3584 
Q 2034 3584 2315 3537 
Q 2597 3491 2834 3397 
z
" transform="scale(0.015625)"/>
       <path id="DejaVuSans-29" d="M 513 4856 
L 1013 4856 
Q 1481 4119 1714 3412 
Q 1947 2706 1947 2009 
Q 1947 1309 1714 600 
Q 1481 -109 1013 -844 
L 513 -844 
Q 928 -128 1133 580 
Q 1338 1288 1338 2009 
Q 1338 2731 1133 3434 
Q 928 4138 513 4856 
z
" transform="scale(0.015625)"/>
      </defs>
      <use xlink:href="#DejaVuSans-74"/>
      <use xlink:href="#DejaVuSans-69" x="39.208984"/>
      <use xlink:href="#DejaVuSans-6d" x="66.992188"/>
      <use xlink:href="#DejaVuSans-65" x="164.404297"/>
      <use xlink:href="#DejaVuSans-28" x="225.927734"/>
      <use xlink:href="#DejaVuSans-68" x="264.941406"/>
      <use xlink:href="#DejaVuSans-6f" x="328.320312"/>
      <use xlink:href="#DejaVuSans-75" x="389.501953"/>
      <use xlink:href="#DejaVuSans-72" x="452.880859"/>
      <use xlink:href="#DejaVuSans-73" x="493.994141"/>
      <use xlink:href="#DejaVuSans-29" x="546.09375"/>
     </g>
    </g>
   </g>
   <g id="matplotlib.axis_2">
    <g id="ytick_1">
     <g id="line2d_7">
      <defs>
       <path id="m9b7730b509" d="M 0 0 
L -3.5 0 
" style="stroke: #000000; stroke-width: 0.8"/>
      </defs>
      <g>
       <use xlink:href="#m9b7730b509" x="57.6" y="307.584" style="stroke: #000000; stroke-width: 0.8"/>
      </g>
     </g>
     <g id="text_8">
      <!-- 0 -->
      <g transform="translate(44.2375 311.383219)scale(0.1 -0.1)">
       <use xlink:href="#DejaVuSans-30"/>
      </g>
     </g>
    </g>
    <g id="ytick_2">
     <g id="line2d_8">
      <g>
       <use xlink:href="#m9b7730b509" x="57.6" y="263.232" style="stroke: #000000; stroke-width: 0.8"/>
      </g>
     </g>
     <g id="text_9">
      <!-- 10 -->
      <g transform="translate(37.875 267.031219)scale(0.1 -0.1)">
       <use xlink:href="#DejaVuSans-31"/>
       <use xlink:href="#DejaVuSans-30" x="63.623047"/>
      </g>
     </g>
    </g>
    <g id="ytick_3">
     <g id="line2d_9">
      <g>
       <use xlink:href="#m9b7730b509" x="57.6" y="218.88" style="stroke: #000000; stroke-width: 0.8"/>
      </g>
     </g>
     <g id="text_10">
      <!-- 20 -->
      <g transform="translate(37.875 222.679219)scale(0.1 -0.1)">
       <use xlink:href="#DejaVuSans-32"/>
       <use xlink:href="#DejaVuSans-30" x="63.623047"/>
      </g>
     </g>
    </g>
    <g id="ytick_4">
     <g id="line2d_10">
      <g>
       <use xlink:href="#m9b7730b509" x="57.6" y="174.528" style="stroke: #000000; stroke-width: 0.8"/>
      </g>
     </g>
     <g id="text_11">
      <!-- 30 -->
      <g transform="translate(37.875 178.327219)scale(0.1 -0.1)">
       <defs>
        <path id="DejaVuSans-33" d="M 2597 2516 
Q 3050 2419 3304 2112 
Q 3559 1806 3559 1356 
Q 3559 666 3084 287 
Q 2609 -91 1734 -91 
Q 1441 -91 1130 -33 
Q 819 25 488 141 
L 488 750 
Q 750 597 1062 519 
Q 1375 441 1716 441 
Q 2309 441 2620 675 
Q 2931 909 2931 1356 
Q 2931 1769 2642 2001 
Q 2353 2234 1838 2234 
L 1294 2234 
L 1294 2753 
L 1863 2753 
Q 2328 2753 2575 2939 
Q 2822 3125 2822 3475 
Q 2822 3834 2567 4026 
Q 2313 4219 1838 4219 
Q 1578 4219 1281 4162 
Q 984 4106 628 3988 
L 628 4550 
Q 988 4650 1302 4700 
Q 1616 4750 1894 4750 
Q 2613 4750 3031 4423 
Q 3450 4097 3450 3541 
Q 3450 3153 3228 2886 
Q 3006 2619 2597 2516 
z
" transform="scale(0.015625)"/>
       </defs>
       <use xlink:href="#DejaVuSans-33"/>
       <use xlink:href="#DejaVuSans-30" x="63.623047"/>
      </g>
     </g>
    </g>
    <g id="ytick_5">
     <g id="line2d_11">
      <g>
       <use xlink:href="#m9b7730b509" x="57.6" y="130.176" style="stroke: #000000; stroke-width: 0.8"/>
      </g>
     </g>
     <g id="text_12">
      <!-- 40 -->
      <g transform="translate(37.875 133.975219)scale(0.1 -0.1)">
       <defs>
        <path id="DejaVuSans-34" d="M 2419 4116 
L 825 1625 
L 2419 1625 
L 2419 4116 
z
M 2253 4666 
L 3047 4666 
L 3047 1625 
L 3713 1625 
L 3713 1100 
L 3047 1100 
L 3047 0 
L 2419 0 
L 2419 1100 
L 313 1100 
L 313 1709 
L 2253 4666 
z
" transform="scale(0.015625)"/>
       </defs>
       <use xlink:href="#DejaVuSans-34"/>
       <use xlink:href="#DejaVuSans-30" x="63.623047"/>
      </g>
     </g>
    </g>
    <g id="ytick_6">
     <g id="line2d_12">
      <g>
       <use xlink:href="#m9b7730b509" x="57.6" y="85.824" style="stroke: #000000; stroke-width: 0.8"/>
      </g>
     </g>
     <g id="text_13">
      <!-- 50 -->
      <g transform="translate(37.875 89.623219)scale(0.1 -0.1)">
       <use xlink:href="#DejaVuSans-35"/>
       <use xlink:href="#DejaVuSans-30" x="63.623047"/>
      </g>
     </g>
    </g>
    <g id="ytick_7">
     <g id="line2d_13">
      <g>
       <use xlink:href="#m9b7730b509" x="57.6" y="41.472" style="stroke: #000000; stroke-width: 0.8"/>
      </g>
     </g>
     <g id="text_14">
      <!-- 60 -->
      <g transform="translate(37.875 45.271219)scale(0.1 -0.1)">
       <defs>
        <path id="DejaVuSans-36" d="M 2113 2584 
Q 1688 2584 1439 2293 
Q 1191 2003 1191 1497 
Q 1191 994 1439 701 
Q 1688 409 2113 409 
Q 2538 409 2786 701 
Q 3034 994 3034 1497 
Q 3034 2003 2786 2293 
Q 2538 2584 2113 2584 
z
M 3366 4563 
L 3366 3988 
Q 3128 4100 2886 4159 
Q 2644 4219 2406 4219 
Q 1781 4219 1451 3797 
Q 1122 3375 1075 2522 
Q 1259 2794 1537 2939 
Q 1816 3084 2150 3084 
Q 2853 3084 3261 2657 
Q 3669 2231 3669 1497 
Q 3669 778 3244 343 
Q 2819 -91 2113 -91 
Q 1303 -91 875 529 
Q 447 1150 447 2328 
Q 447 3434 972 4092 
Q 1497 4750 2381 4750 
Q 2619 4750 2861 4703 
Q 3103 4656 3366 4563 
z
" transform="scale(0.015625)"/>
       </defs>
       <use xlink:href="#DejaVuSans-36"/>
       <use xlink:href="#DejaVuSans-30" x="63.623047"/>
      </g>
     </g>
    </g>
    <g id="text_15">
     <!-- period -->
     <g transform="translate(31.795312 190.456906)rotate(-90)scale(0.1 -0.1)">
      <defs>
       <path id="DejaVuSans-70" d="M 1159 525 
L 1159 -1331 
L 581 -1331 
L 581 3500 
L 1159 3500 
L 1159 2969 
Q 1341 3281 1617 3432 
Q 1894 3584 2278 3584 
Q 2916 3584 3314 3078 
Q 3713 2572 3713 1747 
Q 3713 922 3314 415 
Q 2916 -91 2278 -91 
Q 1894 -91 1617 61 
Q 1341 213 1159 525 
z
M 3116 1747 
Q 3116 2381 2855 2742 
Q 2594 3103 2138 3103 
Q 1681 3103 1420 2742 
Q 1159 2381 1159 1747 
Q 1159 1113 1420 752 
Q 1681 391 2138 391 
Q 2594 391 2855 752 
Q 3116 1113 3116 1747 
z
" transform="scale(0.015625)"/>
       <path id="DejaVuSans-64" d="M 2906 2969 
L 2906 4863 
L 3481 4863 
L 3481 0 
L 2906 0 
L 2906 525 
Q 2725 213 2448 61 
Q 2172 -91 1784 -91 
Q 1150 -91 751 415 
Q 353 922 353 1747 
Q 353 2572 751 3078 
Q 1150 3584 1784 3584 
Q 2172 3584 2448 3432 
Q 2725 3281 2906 2969 
z
M 947 1747 
Q 947 1113 1208 752 
Q 1469 391 1925 391 
Q 2381 391 2643 752 
Q 2906 1113 2906 1747 
Q 2906 2381 2643 2742 
Q 2381 3103 1925 3103 
Q 1469 3103 1208 2742 
Q 947 2381 947 1747 
z
" transform="scale(0.015625)"/>
      </defs>
      <use xlink:href="#DejaVuSans-70"/>
      <use xlink:href="#DejaVuSans-65" x="63.476562"/>
      <use xlink:href="#DejaVuSans-72" x="125"/>
      <use xlink:href="#DejaVuSans-69" x="166.113281"/>
      <use xlink:href="#DejaVuSans-6f" x="193.896484"/>
      <use xlink:href="#DejaVuSans-64" x="255.078125"/>
     </g>
    </g>
   </g>
   <g id="line2d_14">
    <path d="M 73.832727 282.145671 
L 74.918528 267.360885 
L 76.00433 254.545387 
L 77.090131 243.582618 
L 78.175932 234.356023 
L 79.261733 226.749041 
L 80.347534 220.645117 
L 81.433335 215.927693 
L 82.519137 212.48021 
L 83.604938 210.186112 
L 84.690739 208.92884 
L 85.77654 208.591837 
L 86.862341 209.058546 
L 87.948142 210.212408 
L 89.033943 211.936866 
L 90.119745 214.115363 
L 92.291347 219.368241 
L 95.54875 227.738905 
L 96.634552 230.193922 
L 97.720353 232.287074 
L 98.806154 233.901803 
L 99.891955 234.921552 
L 100.977756 235.229786 
L 102.063557 234.759583 
L 103.149358 233.598838 
L 104.23516 231.865556 
L 105.320961 229.677744 
L 107.492563 224.41055 
L 110.749967 216.050928 
L 111.835768 213.614055 
L 112.921569 211.548694 
L 114.00737 209.97285 
L 115.093171 208.996192 
L 116.178972 208.615215 
L 117.264773 208.744852 
L 118.350575 209.298235 
L 119.436376 210.188494 
L 120.522177 211.328761 
L 125.951183 217.739819 
L 127.036984 218.555896 
L 128.122785 219.014016 
L 129.208586 219.066332 
L 130.294387 218.760368 
L 131.380189 218.157994 
L 132.46599 217.321082 
L 134.637592 215.191123 
L 137.894995 211.783905 
L 138.980797 210.83904 
L 140.066598 210.09273 
L 141.152399 209.606844 
L 142.2382 209.435837 
L 143.324001 209.559786 
L 144.409802 209.915866 
L 146.581405 211.071053 
L 149.838808 212.961266 
L 150.924609 213.379951 
L 152.01041 213.587372 
L 153.096212 213.520188 
L 154.182013 213.115055 
L 155.267814 212.309147 
L 156.353615 211.101813 
L 158.525217 207.97717 
L 160.69682 204.799112 
L 161.782621 203.525008 
L 162.868422 202.639497 
L 163.954223 202.276562 
L 165.040024 202.570184 
L 166.125825 203.654347 
L 167.211627 205.663032 
L 168.297428 208.730222 
L 169.383229 212.962951 
L 170.46903 218.263681 
L 171.554831 224.441018 
L 173.726434 238.657973 
L 178.069638 269.168237 
L 180.24124 282.391392 
L 181.327042 287.823379 
L 182.412843 292.215045 
L 183.498644 295.491616 
L 184.584445 297.756856 
L 185.670246 299.129892 
L 186.756047 299.729849 
L 187.841849 299.675852 
L 188.92765 299.087025 
L 190.013451 298.082494 
L 191.099252 296.781385 
L 195.442457 290.993661 
L 196.528258 289.979665 
L 197.614059 289.251593 
L 198.69986 288.777536 
L 199.785661 288.525535 
L 200.871462 288.46363 
L 201.957264 288.559864 
L 204.128866 289.09891 
L 209.557872 290.977313 
L 211.729474 291.364263 
L 213.901076 291.496994 
L 217.15848 291.369044 
L 225.844889 290.693099 
L 230.188094 290.691853 
L 245.38931 290.924688 
L 255.16152 290.702955 
L 260.590526 290.712945 
L 263.847929 290.901676 
L 270.362736 291.457701 
L 272.534339 291.465243 
L 274.705941 291.272401 
L 276.877543 290.8123 
L 280.134947 289.676751 
L 282.306549 288.945142 
L 284.478151 288.526678 
L 285.563953 288.513304 
L 286.649754 288.672334 
L 287.735555 289.035137 
L 288.821356 289.633086 
L 289.907157 290.497554 
L 290.992958 291.652579 
L 293.164561 294.534444 
L 295.336163 297.4003 
L 296.421964 298.534396 
L 297.507765 299.313097 
L 298.593566 299.619271 
L 299.679368 299.335786 
L 300.765169 298.345512 
L 301.85097 296.531317 
L 302.936771 293.776071 
L 304.022572 289.963096 
L 305.108373 285.062666 
L 306.194175 279.234578 
L 308.365777 265.534476 
L 313.794783 227.983536 
L 314.880584 221.385611 
L 315.966385 215.522886 
L 317.052186 210.580121 
L 318.137987 206.720851 
L 319.223788 203.923859 
L 320.30959 202.072797 
L 321.395391 201.050532 
L 322.481192 200.73993 
L 323.566993 201.023858 
L 324.652794 201.785184 
L 325.738595 202.906774 
L 327.910198 205.762212 
L 330.0818 208.653107 
L 331.167601 209.819632 
L 332.253402 210.695736 
L 333.339203 211.304004 
L 334.425005 211.675818 
L 335.510806 211.842561 
L 336.596607 211.835615 
L 338.768209 211.426183 
L 342.025613 210.293925 
L 344.197215 209.559805 
L 346.368817 209.094306 
L 348.54042 208.897589 
L 350.712022 208.9025 
L 353.969425 209.140951 
L 359.398431 209.599322 
L 363.741636 209.678353 
L 387.629261 209.536149 
L 397.401472 209.529323 
L 398.487273 209.509135 
L 398.487273 209.509135 
" clip-path="url(#pd1102d86a3)" style="fill: none; stroke: #ff0000; stroke-width: 1.5; stroke-linecap: square"/>
   </g>
   <g id="line2d_15">
    <path d="M 73.832727 231.269013 
L 74.918528 186.914655 
L 76.00433 148.46816 
L 77.090131 115.579855 
L 78.175932 87.900068 
L 79.261733 65.079124 
L 80.347534 46.767352 
L 81.433335 41.472 
L 91.205546 41.472 
L 92.291347 42.936722 
L 95.54875 68.048715 
L 96.634552 75.413766 
L 97.720353 81.693221 
L 98.806154 86.537409 
L 99.891955 89.596656 
L 100.977756 90.521357 
L 102.063557 89.11075 
L 103.149358 85.628514 
L 104.23516 80.428668 
L 105.320961 73.865231 
L 107.492563 58.06365 
L 109.664165 41.472 
L 127.036984 41.472 
L 128.122785 41.874048 
L 129.208586 42.030995 
L 130.294387 41.472 
L 170.46903 41.472 
L 171.554831 58.155054 
L 173.726434 100.805918 
L 178.069638 192.336711 
L 180.24124 232.006176 
L 181.327042 248.302137 
L 182.412843 261.477136 
L 183.498644 271.306847 
L 184.584445 278.102569 
L 185.670246 282.221677 
L 186.756047 284.021548 
L 187.841849 283.859555 
L 188.92765 282.093075 
L 190.013451 279.079483 
L 191.099252 275.176155 
L 195.442457 257.812982 
L 196.528258 254.770995 
L 197.614059 252.586779 
L 198.69986 251.164608 
L 199.785661 250.408604 
L 200.871462 250.222891 
L 201.957264 250.511592 
L 203.043065 251.178831 
L 204.128866 252.128731 
L 206.300468 254.49301 
L 208.472071 256.837415 
L 209.557872 257.763939 
L 210.643673 258.452521 
L 211.729474 258.92479 
L 212.815275 259.206393 
L 213.901076 259.322981 
L 214.986877 259.3002 
L 217.15848 258.939131 
L 220.415883 257.993487 
L 222.587486 257.392931 
L 224.759088 257.015461 
L 226.93069 256.854893 
L 230.188094 256.907558 
L 243.217708 257.641649 
L 247.560912 257.518319 
L 252.989918 257.103641 
L 257.333123 256.852989 
L 259.504725 256.889943 
L 261.676327 257.101658 
L 263.847929 257.537027 
L 269.276935 259.031068 
L 271.448538 259.279017 
L 272.534339 259.227728 
L 273.62014 259.026152 
L 274.705941 258.649204 
L 275.791742 258.071802 
L 276.877543 257.268901 
L 279.049146 255.076665 
L 281.220748 252.69447 
L 282.306549 251.667427 
L 283.39235 250.875243 
L 284.478151 250.412033 
L 285.563953 250.371913 
L 286.649754 250.849001 
L 287.735555 251.93741 
L 288.821356 253.731259 
L 289.907157 256.324662 
L 290.992958 259.789736 
L 293.164561 268.435331 
L 295.336163 277.032899 
L 296.421964 280.435189 
L 297.507765 282.771291 
L 298.593566 283.689812 
L 299.679368 282.839359 
L 300.765169 279.868537 
L 301.85097 274.425952 
L 302.936771 266.160212 
L 304.022572 254.721288 
L 305.108373 240.019998 
L 306.194175 222.535735 
L 308.365777 181.435427 
L 313.794783 68.782607 
L 314.880584 48.988834 
L 315.966385 41.472 
L 398.487273 41.472 
L 398.487273 41.472 
" clip-path="url(#pd1102d86a3)" style="fill: none; stroke: #0000ff; stroke-width: 1.5; stroke-linecap: square"/>
   </g>
   <g id="line2d_16">
    <path d="M 73.832727 180.392355 
L 74.918528 106.468425 
L 76.00433 42.390934 
L 77.090131 41.472 
L 175.898036 41.472 
L 179.155439 150.20925 
L 180.24124 181.62096 
L 181.327042 208.780894 
L 182.412843 230.739227 
L 183.498644 247.122078 
L 184.584445 258.448282 
L 185.670246 265.313462 
L 186.756047 268.313246 
L 187.841849 268.043258 
L 188.92765 265.099125 
L 190.013451 260.076472 
L 191.099252 253.570925 
L 195.442457 224.632304 
L 196.528258 219.562324 
L 197.614059 215.921966 
L 198.69986 213.55168 
L 199.785661 212.291674 
L 200.871462 211.982152 
L 201.957264 212.46332 
L 203.043065 213.575385 
L 204.128866 215.158552 
L 206.300468 219.099016 
L 208.472071 223.006358 
L 209.557872 224.550565 
L 210.643673 225.698202 
L 211.729474 226.485316 
L 212.815275 226.954656 
L 213.901076 227.148968 
L 214.986877 227.111001 
L 216.072679 226.883502 
L 218.244281 226.0309 
L 222.587486 223.932218 
L 224.759088 223.303101 
L 226.93069 223.035488 
L 229.102292 223.04315 
L 232.359696 223.382161 
L 237.788702 224.108125 
L 241.046105 224.318127 
L 244.303509 224.328022 
L 247.560912 224.141199 
L 250.818316 223.762978 
L 256.247321 223.084739 
L 258.418924 223.031902 
L 260.590526 223.228724 
L 262.762128 223.758422 
L 264.933731 224.669675 
L 268.191134 226.247329 
L 269.276935 226.662446 
L 270.362736 226.952504 
L 271.448538 227.075695 
L 272.534339 226.990213 
L 273.62014 226.654253 
L 274.705941 226.026007 
L 275.791742 225.06367 
L 276.877543 223.725501 
L 277.963344 222.016643 
L 282.306549 214.389712 
L 283.39235 213.069405 
L 284.478151 212.297388 
L 285.563953 212.230522 
L 286.649754 213.025668 
L 287.735555 214.839684 
L 288.821356 217.829431 
L 289.907157 222.15177 
L 290.992958 227.926893 
L 293.164561 242.336218 
L 295.336163 256.665498 
L 296.421964 262.335982 
L 297.507765 266.229486 
L 298.593566 267.760354 
L 299.679368 266.342931 
L 300.765169 261.391561 
L 301.85097 252.320587 
L 302.936771 238.544354 
L 304.022572 219.47948 
L 305.108373 194.977331 
L 306.194175 165.836891 
L 308.365777 97.336379 
L 309.451578 59.823925 
L 310.537379 41.472 
L 398.487273 41.472 
L 398.487273 41.472 
" clip-path="url(#pd1102d86a3)" style="fill: none; stroke: #008000; stroke-width: 1.5; stroke-linecap: square"/>
   </g>
   <g id="patch_3">
    <path d="M 57.6 307.584 
L 57.6 41.472 
" style="fill: none; stroke: #000000; stroke-width: 0.8; stroke-linejoin: miter; stroke-linecap: square"/>
   </g>
   <g id="patch_4">
    <path d="M 414.72 307.584 
L 414.72 41.472 
" style="fill: none; stroke: #000000; stroke-width: 0.8; stroke-linejoin: miter; stroke-linecap: square"/>
   </g>
   <g id="patch_5">
    <path d="M 57.6 307.584 
L 414.72 307.584 
" style="fill: none; stroke: #000000; stroke-width: 0.8; stroke-linejoin: miter; stroke-linecap: square"/>
   </g>
   <g id="patch_6">
    <path d="M 57.6 41.472 
L 414.72 41.472 
" style="fill: none; stroke: #000000; stroke-width: 0.8; stroke-linejoin: miter; stroke-linecap: square"/>
   </g>
   <g id="legend_1">
    <g id="patch_7">
     <path d="M 355.446563 93.506375 
L 407.72 93.506375 
Q 409.72 93.506375 409.72 91.506375 
L 409.72 48.472 
Q 409.72 46.472 407.72 46.472 
L 355.446563 46.472 
Q 353.446563 46.472 353.446563 48.472 
L 353.446563 91.506375 
Q 353.446563 93.506375 355.446563 93.506375 
z
" style="fill: #ffffff; opacity: 0.8; stroke: #cccccc; stroke-linejoin: miter"/>
    </g>
    <g id="line2d_17">
     <path d="M 357.446563 54.570438 
L 367.446563 54.570438 
L 377.446563 54.570438 
" style="fill: none; stroke: #ff0000; stroke-width: 1.5; stroke-linecap: square"/>
    </g>
    <g id="text_16">
     <!-- T(1) -->
     <g transform="translate(385.446563 58.070438)scale(0.1 -0.1)">
      <defs>
       <path id="DejaVuSans-54" d="M -19 4666 
L 3928 4666 
L 3928 4134 
L 2272 4134 
L 2272 0 
L 1638 0 
L 1638 4134 
L -19 4134 
L -19 4666 
z
" transform="scale(0.015625)"/>
      </defs>
      <use xlink:href="#DejaVuSans-54"/>
      <use xlink:href="#DejaVuSans-28" x="61.083984"/>
      <use xlink:href="#DejaVuSans-31" x="100.097656"/>
      <use xlink:href="#DejaVuSans-29" x="163.720703"/>
     </g>
    </g>
    <g id="line2d_18">
     <path d="M 357.446563 69.248563 
L 367.446563 69.248563 
L 377.446563 69.248563 
" style="fill: none; stroke: #0000ff; stroke-width: 1.5; stroke-linecap: square"/>
    </g>
    <g id="text_17">
     <!-- T(2) -->
     <g transform="translate(385.446563 72.748563)scale(0.1 -0.1)">
      <use xlink:href="#DejaVuSans-54"/>
      <use xlink:href="#DejaVuSans-28" x="61.083984"/>
      <use xlink:href="#DejaVuSans-32" x="100.097656"/>
      <use xlink:href="#DejaVuSans-29" x="163.720703"/>
     </g>
    </g>
    <g id="line2d_19">
     <path d="M 357.446563 83.926688 
L 367.446563 83.926688 
L 377.446563 83.926688 
" style="fill: none; stroke: #008000; stroke-width: 1.5; stroke-linecap: square"/>
    </g>
    <g id="text_18">
     <!-- T(3) -->
     <g transform="translate(385.446563 87.426688)scale(0.1 -0.1)">
      <use xlink:href="#DejaVuSans-54"/>
      <use xlink:href="#DejaVuSans-28" x="61.083984"/>
      <use xlink:href="#DejaVuSans-33" x="100.097656"/>
      <use xlink:href="#DejaVuSans-29" x="163.720703"/>
     </g>
    </g>
   </g>
  </g>
 </g>
 <defs>
  <clipPath id="pd1102d86a3">
   <rect x="57.6" y="41.472" width="357.12" height="266.112"/>
  </clipPath>
 </defs>
</svg>
