<?xml version="1.0" encoding="utf-8" standalone="no"?>
<!DOCTYPE svg PUBLIC "-//W3C//DTD SVG 1.1//EN"
  "http://www.w3.org/Graphics/SVG/1.1/DTD/svg11.dtd">
<svg xmlns:xlink="http://www.w3.org/1999/xlink" width="460.8pt" height="345.6pt" viewBox="0 0 460.8 345.6" xmlns="http://www.w3.org/2000/svg" version="1.1">
 <metadata>
  <rdf:RDF xmlns:dc="http://purl.org/dc/elements/1.1/" xmlns:cc="http://creativecommons.org/ns#" xmlns:rdf="http://www.w3.org/1999/02/22-rdf-syntax-ns#">
   <cc:Work>
    <dc:type rdf:resource="http://purl.org/dc/dcmitype/StillImage"/>
    <dc:date>2022-12-01T15:13:04.238557</dc:date>
    <dc:format>image/svg+xml</dc:format>
    <dc:creator>
     <cc:Agent>
      <dc:title>Matplotlib v3.5.0, https://matplotlib.org/</dc:title>
     </cc:Agent>
    </dc:creator>
   </cc:Work>
  </rdf:RDF>
 </metadata>
 <defs>
  <style type="text/css">*{stroke-linejoin: round; stroke-linecap: butt}</style>
 </defs>
 <g id="figure_1">
  <g id="patch_1">
   <path d="M 0 345.6 
L 460.8 345.6 
L 460.8 0 
L 0 0 
z
" style="fill: #ffffff"/>
  </g>
  <g id="axes_1">
   <g id="patch_2">
    <path d="M 57.6 307.584 
L 414.72 307.584 
L 414.72 41.472 
L 57.6 41.472 
z
" style="fill: #ffffff"/>
   </g>
   <g id="matplotlib.axis_1">
    <g id="xtick_1">
     <g id="line2d_1">
      <defs>
       <path id="m752c3e4cc6" d="M 0 0 
L 0 3.5 
" style="stroke: #000000; stroke-width: 0.8"/>
      </defs>
      <g>
       <use xlink:href="#m752c3e4cc6" x="73.832727" y="307.584" style="stroke: #000000; stroke-width: 0.8"/>
      </g>
     </g>
     <g id="text_1">
      <!-- 0 -->
      <g transform="translate(70.651477 322.182437)scale(0.1 -0.1)">
       <defs>
        <path id="DejaVuSans-30" d="M 2034 4250 
Q 1547 4250 1301 3770 
Q 1056 3291 1056 2328 
Q 1056 1369 1301 889 
Q 1547 409 2034 409 
Q 2525 409 2770 889 
Q 3016 1369 3016 2328 
Q 3016 3291 2770 3770 
Q 2525 4250 2034 4250 
z
M 2034 4750 
Q 2819 4750 3233 4129 
Q 3647 3509 3647 2328 
Q 3647 1150 3233 529 
Q 2819 -91 2034 -91 
Q 1250 -91 836 529 
Q 422 1150 422 2328 
Q 422 3509 836 4129 
Q 1250 4750 2034 4750 
z
" transform="scale(0.015625)"/>
       </defs>
       <use xlink:href="#DejaVuSans-30"/>
      </g>
     </g>
    </g>
    <g id="xtick_2">
     <g id="line2d_2">
      <g>
       <use xlink:href="#m752c3e4cc6" x="141.469091" y="307.584" style="stroke: #000000; stroke-width: 0.8"/>
      </g>
     </g>
     <g id="text_2">
      <!-- 5 -->
      <g transform="translate(138.287841 322.182437)scale(0.1 -0.1)">
       <defs>
        <path id="DejaVuSans-35" d="M 691 4666 
L 3169 4666 
L 3169 4134 
L 1269 4134 
L 1269 2991 
Q 1406 3038 1543 3061 
Q 1681 3084 1819 3084 
Q 2600 3084 3056 2656 
Q 3513 2228 3513 1497 
Q 3513 744 3044 326 
Q 2575 -91 1722 -91 
Q 1428 -91 1123 -41 
Q 819 9 494 109 
L 494 744 
Q 775 591 1075 516 
Q 1375 441 1709 441 
Q 2250 441 2565 725 
Q 2881 1009 2881 1497 
Q 2881 1984 2565 2268 
Q 2250 2553 1709 2553 
Q 1456 2553 1204 2497 
Q 953 2441 691 2322 
L 691 4666 
z
" transform="scale(0.015625)"/>
       </defs>
       <use xlink:href="#DejaVuSans-35"/>
      </g>
     </g>
    </g>
    <g id="xtick_3">
     <g id="line2d_3">
      <g>
       <use xlink:href="#m752c3e4cc6" x="209.105455" y="307.584" style="stroke: #000000; stroke-width: 0.8"/>
      </g>
     </g>
     <g id="text_3">
      <!-- 10 -->
      <g transform="translate(202.742955 322.182437)scale(0.1 -0.1)">
       <defs>
        <path id="DejaVuSans-31" d="M 794 531 
L 1825 531 
L 1825 4091 
L 703 3866 
L 703 4441 
L 1819 4666 
L 2450 4666 
L 2450 531 
L 3481 531 
L 3481 0 
L 794 0 
L 794 531 
z
" transform="scale(0.015625)"/>
       </defs>
       <use xlink:href="#DejaVuSans-31"/>
       <use xlink:href="#DejaVuSans-30" x="63.623047"/>
      </g>
     </g>
    </g>
    <g id="xtick_4">
     <g id="line2d_4">
      <g>
       <use xlink:href="#m752c3e4cc6" x="276.741818" y="307.584" style="stroke: #000000; stroke-width: 0.8"/>
      </g>
     </g>
     <g id="text_4">
      <!-- 15 -->
      <g transform="translate(270.379318 322.182437)scale(0.1 -0.1)">
       <use xlink:href="#DejaVuSans-31"/>
       <use xlink:href="#DejaVuSans-35" x="63.623047"/>
      </g>
     </g>
    </g>
    <g id="xtick_5">
     <g id="line2d_5">
      <g>
       <use xlink:href="#m752c3e4cc6" x="344.378182" y="307.584" style="stroke: #000000; stroke-width: 0.8"/>
      </g>
     </g>
     <g id="text_5">
      <!-- 20 -->
      <g transform="translate(338.015682 322.182437)scale(0.1 -0.1)">
       <defs>
        <path id="DejaVuSans-32" d="M 1228 531 
L 3431 531 
L 3431 0 
L 469 0 
L 469 531 
Q 828 903 1448 1529 
Q 2069 2156 2228 2338 
Q 2531 2678 2651 2914 
Q 2772 3150 2772 3378 
Q 2772 3750 2511 3984 
Q 2250 4219 1831 4219 
Q 1534 4219 1204 4116 
Q 875 4013 500 3803 
L 500 4441 
Q 881 4594 1212 4672 
Q 1544 4750 1819 4750 
Q 2544 4750 2975 4387 
Q 3406 4025 3406 3419 
Q 3406 3131 3298 2873 
Q 3191 2616 2906 2266 
Q 2828 2175 2409 1742 
Q 1991 1309 1228 531 
z
" transform="scale(0.015625)"/>
       </defs>
       <use xlink:href="#DejaVuSans-32"/>
       <use xlink:href="#DejaVuSans-30" x="63.623047"/>
      </g>
     </g>
    </g>
    <g id="xtick_6">
     <g id="line2d_6">
      <g>
       <use xlink:href="#m752c3e4cc6" x="412.014545" y="307.584" style="stroke: #000000; stroke-width: 0.8"/>
      </g>
     </g>
     <g id="text_6">
      <!-- 25 -->
      <g transform="translate(405.652045 322.182437)scale(0.1 -0.1)">
       <use xlink:href="#DejaVuSans-32"/>
       <use xlink:href="#DejaVuSans-35" x="63.623047"/>
      </g>
     </g>
    </g>
    <g id="text_7">
     <!-- time(hours) -->
     <g transform="translate(206.905312 335.860562)scale(0.1 -0.1)">
      <defs>
       <path id="DejaVuSans-74" d="M 1172 4494 
L 1172 3500 
L 2356 3500 
L 2356 3053 
L 1172 3053 
L 1172 1153 
Q 1172 725 1289 603 
Q 1406 481 1766 481 
L 2356 481 
L 2356 0 
L 1766 0 
Q 1100 0 847 248 
Q 594 497 594 1153 
L 594 3053 
L 172 3053 
L 172 3500 
L 594 3500 
L 594 4494 
L 1172 4494 
z
" transform="scale(0.015625)"/>
       <path id="DejaVuSans-69" d="M 603 3500 
L 1178 3500 
L 1178 0 
L 603 0 
L 603 3500 
z
M 603 4863 
L 1178 4863 
L 1178 4134 
L 603 4134 
L 603 4863 
z
" transform="scale(0.015625)"/>
       <path id="DejaVuSans-6d" d="M 3328 2828 
Q 3544 3216 3844 3400 
Q 4144 3584 4550 3584 
Q 5097 3584 5394 3201 
Q 5691 2819 5691 2113 
L 5691 0 
L 5113 0 
L 5113 2094 
Q 5113 2597 4934 2840 
Q 4756 3084 4391 3084 
Q 3944 3084 3684 2787 
Q 3425 2491 3425 1978 
L 3425 0 
L 2847 0 
L 2847 2094 
Q 2847 2600 2669 2842 
Q 2491 3084 2119 3084 
Q 1678 3084 1418 2786 
Q 1159 2488 1159 1978 
L 1159 0 
L 581 0 
L 581 3500 
L 1159 3500 
L 1159 2956 
Q 1356 3278 1631 3431 
Q 1906 3584 2284 3584 
Q 2666 3584 2933 3390 
Q 3200 3197 3328 2828 
z
" transform="scale(0.015625)"/>
       <path id="DejaVuSans-65" d="M 3597 1894 
L 3597 1613 
L 953 1613 
Q 991 1019 1311 708 
Q 1631 397 2203 397 
Q 2534 397 2845 478 
Q 3156 559 3463 722 
L 3463 178 
Q 3153 47 2828 -22 
Q 2503 -91 2169 -91 
Q 1331 -91 842 396 
Q 353 884 353 1716 
Q 353 2575 817 3079 
Q 1281 3584 2069 3584 
Q 2775 3584 3186 3129 
Q 3597 2675 3597 1894 
z
M 3022 2063 
Q 3016 2534 2758 2815 
Q 2500 3097 2075 3097 
Q 1594 3097 1305 2825 
Q 1016 2553 972 2059 
L 3022 2063 
z
" transform="scale(0.015625)"/>
       <path id="DejaVuSans-28" d="M 1984 4856 
Q 1566 4138 1362 3434 
Q 1159 2731 1159 2009 
Q 1159 1288 1364 580 
Q 1569 -128 1984 -844 
L 1484 -844 
Q 1016 -109 783 600 
Q 550 1309 550 2009 
Q 550 2706 781 3412 
Q 1013 4119 1484 4856 
L 1984 4856 
z
" transform="scale(0.015625)"/>
       <path id="DejaVuSans-68" d="M 3513 2113 
L 3513 0 
L 2938 0 
L 2938 2094 
Q 2938 2591 2744 2837 
Q 2550 3084 2163 3084 
Q 1697 3084 1428 2787 
Q 1159 2491 1159 1978 
L 1159 0 
L 581 0 
L 581 4863 
L 1159 4863 
L 1159 2956 
Q 1366 3272 1645 3428 
Q 1925 3584 2291 3584 
Q 2894 3584 3203 3211 
Q 3513 2838 3513 2113 
z
" transform="scale(0.015625)"/>
       <path id="DejaVuSans-6f" d="M 1959 3097 
Q 1497 3097 1228 2736 
Q 959 2375 959 1747 
Q 959 1119 1226 758 
Q 1494 397 1959 397 
Q 2419 397 2687 759 
Q 2956 1122 2956 1747 
Q 2956 2369 2687 2733 
Q 2419 3097 1959 3097 
z
M 1959 3584 
Q 2709 3584 3137 3096 
Q 3566 2609 3566 1747 
Q 3566 888 3137 398 
Q 2709 -91 1959 -91 
Q 1206 -91 779 398 
Q 353 888 353 1747 
Q 353 2609 779 3096 
Q 1206 3584 1959 3584 
z
" transform="scale(0.015625)"/>
       <path id="DejaVuSans-75" d="M 544 1381 
L 544 3500 
L 1119 3500 
L 1119 1403 
Q 1119 906 1312 657 
Q 1506 409 1894 409 
Q 2359 409 2629 706 
Q 2900 1003 2900 1516 
L 2900 3500 
L 3475 3500 
L 3475 0 
L 2900 0 
L 2900 538 
Q 2691 219 2414 64 
Q 2138 -91 1772 -91 
Q 1169 -91 856 284 
Q 544 659 544 1381 
z
M 1991 3584 
L 1991 3584 
z
" transform="scale(0.015625)"/>
       <path id="DejaVuSans-72" d="M 2631 2963 
Q 2534 3019 2420 3045 
Q 2306 3072 2169 3072 
Q 1681 3072 1420 2755 
Q 1159 2438 1159 1844 
L 1159 0 
L 581 0 
L 581 3500 
L 1159 3500 
L 1159 2956 
Q 1341 3275 1631 3429 
Q 1922 3584 2338 3584 
Q 2397 3584 2469 3576 
Q 2541 3569 2628 3553 
L 2631 2963 
z
" transform="scale(0.015625)"/>
       <path id="DejaVuSans-73" d="M 2834 3397 
L 2834 2853 
Q 2591 2978 2328 3040 
Q 2066 3103 1784 3103 
Q 1356 3103 1142 2972 
Q 928 2841 928 2578 
Q 928 2378 1081 2264 
Q 1234 2150 1697 2047 
L 1894 2003 
Q 2506 1872 2764 1633 
Q 3022 1394 3022 966 
Q 3022 478 2636 193 
Q 2250 -91 1575 -91 
Q 1294 -91 989 -36 
Q 684 19 347 128 
L 347 722 
Q 666 556 975 473 
Q 1284 391 1588 391 
Q 1994 391 2212 530 
Q 2431 669 2431 922 
Q 2431 1156 2273 1281 
Q 2116 1406 1581 1522 
L 1381 1569 
Q 847 1681 609 1914 
Q 372 2147 372 2553 
Q 372 3047 722 3315 
Q 1072 3584 1716 3584 
Q 2034 3584 2315 3537 
Q 2597 3491 2834 3397 
z
" transform="scale(0.015625)"/>
       <path id="DejaVuSans-29" d="M 513 4856 
L 1013 4856 
Q 1481 4119 1714 3412 
Q 1947 2706 1947 2009 
Q 1947 1309 1714 600 
Q 1481 -109 1013 -844 
L 513 -844 
Q 928 -128 1133 580 
Q 1338 1288 1338 2009 
Q 1338 2731 1133 3434 
Q 928 4138 513 4856 
z
" transform="scale(0.015625)"/>
      </defs>
      <use xlink:href="#DejaVuSans-74"/>
      <use xlink:href="#DejaVuSans-69" x="39.208984"/>
      <use xlink:href="#DejaVuSans-6d" x="66.992188"/>
      <use xlink:href="#DejaVuSans-65" x="164.404297"/>
      <use xlink:href="#DejaVuSans-28" x="225.927734"/>
      <use xlink:href="#DejaVuSans-68" x="264.941406"/>
      <use xlink:href="#DejaVuSans-6f" x="328.320312"/>
      <use xlink:href="#DejaVuSans-75" x="389.501953"/>
      <use xlink:href="#DejaVuSans-72" x="452.880859"/>
      <use xlink:href="#DejaVuSans-73" x="493.994141"/>
      <use xlink:href="#DejaVuSans-29" x="546.09375"/>
     </g>
    </g>
   </g>
   <g id="matplotlib.axis_2">
    <g id="ytick_1">
     <g id="line2d_7">
      <defs>
       <path id="m55e0109ffe" d="M 0 0 
L -3.5 0 
" style="stroke: #000000; stroke-width: 0.8"/>
      </defs>
      <g>
       <use xlink:href="#m55e0109ffe" x="57.6" y="307.584" style="stroke: #000000; stroke-width: 0.8"/>
      </g>
     </g>
     <g id="text_8">
      <!-- 0.0 -->
      <g transform="translate(34.696875 311.383219)scale(0.1 -0.1)">
       <defs>
        <path id="DejaVuSans-2e" d="M 684 794 
L 1344 794 
L 1344 0 
L 684 0 
L 684 794 
z
" transform="scale(0.015625)"/>
       </defs>
       <use xlink:href="#DejaVuSans-30"/>
       <use xlink:href="#DejaVuSans-2e" x="63.623047"/>
       <use xlink:href="#DejaVuSans-30" x="95.410156"/>
      </g>
     </g>
    </g>
    <g id="ytick_2">
     <g id="line2d_8">
      <g>
       <use xlink:href="#m55e0109ffe" x="57.6" y="254.3616" style="stroke: #000000; stroke-width: 0.8"/>
      </g>
     </g>
     <g id="text_9">
      <!-- 0.2 -->
      <g transform="translate(34.696875 258.160819)scale(0.1 -0.1)">
       <use xlink:href="#DejaVuSans-30"/>
       <use xlink:href="#DejaVuSans-2e" x="63.623047"/>
       <use xlink:href="#DejaVuSans-32" x="95.410156"/>
      </g>
     </g>
    </g>
    <g id="ytick_3">
     <g id="line2d_9">
      <g>
       <use xlink:href="#m55e0109ffe" x="57.6" y="201.1392" style="stroke: #000000; stroke-width: 0.8"/>
      </g>
     </g>
     <g id="text_10">
      <!-- 0.4 -->
      <g transform="translate(34.696875 204.938419)scale(0.1 -0.1)">
       <defs>
        <path id="DejaVuSans-34" d="M 2419 4116 
L 825 1625 
L 2419 1625 
L 2419 4116 
z
M 2253 4666 
L 3047 4666 
L 3047 1625 
L 3713 1625 
L 3713 1100 
L 3047 1100 
L 3047 0 
L 2419 0 
L 2419 1100 
L 313 1100 
L 313 1709 
L 2253 4666 
z
" transform="scale(0.015625)"/>
       </defs>
       <use xlink:href="#DejaVuSans-30"/>
       <use xlink:href="#DejaVuSans-2e" x="63.623047"/>
       <use xlink:href="#DejaVuSans-34" x="95.410156"/>
      </g>
     </g>
    </g>
    <g id="ytick_4">
     <g id="line2d_10">
      <g>
       <use xlink:href="#m55e0109ffe" x="57.6" y="147.9168" style="stroke: #000000; stroke-width: 0.8"/>
      </g>
     </g>
     <g id="text_11">
      <!-- 0.6 -->
      <g transform="translate(34.696875 151.716019)scale(0.1 -0.1)">
       <defs>
        <path id="DejaVuSans-36" d="M 2113 2584 
Q 1688 2584 1439 2293 
Q 1191 2003 1191 1497 
Q 1191 994 1439 701 
Q 1688 409 2113 409 
Q 2538 409 2786 701 
Q 3034 994 3034 1497 
Q 3034 2003 2786 2293 
Q 2538 2584 2113 2584 
z
M 3366 4563 
L 3366 3988 
Q 3128 4100 2886 4159 
Q 2644 4219 2406 4219 
Q 1781 4219 1451 3797 
Q 1122 3375 1075 2522 
Q 1259 2794 1537 2939 
Q 1816 3084 2150 3084 
Q 2853 3084 3261 2657 
Q 3669 2231 3669 1497 
Q 3669 778 3244 343 
Q 2819 -91 2113 -91 
Q 1303 -91 875 529 
Q 447 1150 447 2328 
Q 447 3434 972 4092 
Q 1497 4750 2381 4750 
Q 2619 4750 2861 4703 
Q 3103 4656 3366 4563 
z
" transform="scale(0.015625)"/>
       </defs>
       <use xlink:href="#DejaVuSans-30"/>
       <use xlink:href="#DejaVuSans-2e" x="63.623047"/>
       <use xlink:href="#DejaVuSans-36" x="95.410156"/>
      </g>
     </g>
    </g>
    <g id="ytick_5">
     <g id="line2d_11">
      <g>
       <use xlink:href="#m55e0109ffe" x="57.6" y="94.6944" style="stroke: #000000; stroke-width: 0.8"/>
      </g>
     </g>
     <g id="text_12">
      <!-- 0.8 -->
      <g transform="translate(34.696875 98.493619)scale(0.1 -0.1)">
       <defs>
        <path id="DejaVuSans-38" d="M 2034 2216 
Q 1584 2216 1326 1975 
Q 1069 1734 1069 1313 
Q 1069 891 1326 650 
Q 1584 409 2034 409 
Q 2484 409 2743 651 
Q 3003 894 3003 1313 
Q 3003 1734 2745 1975 
Q 2488 2216 2034 2216 
z
M 1403 2484 
Q 997 2584 770 2862 
Q 544 3141 544 3541 
Q 544 4100 942 4425 
Q 1341 4750 2034 4750 
Q 2731 4750 3128 4425 
Q 3525 4100 3525 3541 
Q 3525 3141 3298 2862 
Q 3072 2584 2669 2484 
Q 3125 2378 3379 2068 
Q 3634 1759 3634 1313 
Q 3634 634 3220 271 
Q 2806 -91 2034 -91 
Q 1263 -91 848 271 
Q 434 634 434 1313 
Q 434 1759 690 2068 
Q 947 2378 1403 2484 
z
M 1172 3481 
Q 1172 3119 1398 2916 
Q 1625 2713 2034 2713 
Q 2441 2713 2670 2916 
Q 2900 3119 2900 3481 
Q 2900 3844 2670 4047 
Q 2441 4250 2034 4250 
Q 1625 4250 1398 4047 
Q 1172 3844 1172 3481 
z
" transform="scale(0.015625)"/>
       </defs>
       <use xlink:href="#DejaVuSans-30"/>
       <use xlink:href="#DejaVuSans-2e" x="63.623047"/>
       <use xlink:href="#DejaVuSans-38" x="95.410156"/>
      </g>
     </g>
    </g>
    <g id="ytick_6">
     <g id="line2d_12">
      <g>
       <use xlink:href="#m55e0109ffe" x="57.6" y="41.472" style="stroke: #000000; stroke-width: 0.8"/>
      </g>
     </g>
     <g id="text_13">
      <!-- 1.0 -->
      <g transform="translate(34.696875 45.271219)scale(0.1 -0.1)">
       <use xlink:href="#DejaVuSans-31"/>
       <use xlink:href="#DejaVuSans-2e" x="63.623047"/>
       <use xlink:href="#DejaVuSans-30" x="95.410156"/>
      </g>
     </g>
    </g>
    <g id="text_14">
     <!-- utilization -->
     <g transform="translate(28.617187 199.089719)rotate(-90)scale(0.1 -0.1)">
      <defs>
       <path id="DejaVuSans-6c" d="M 603 4863 
L 1178 4863 
L 1178 0 
L 603 0 
L 603 4863 
z
" transform="scale(0.015625)"/>
       <path id="DejaVuSans-7a" d="M 353 3500 
L 3084 3500 
L 3084 2975 
L 922 459 
L 3084 459 
L 3084 0 
L 275 0 
L 275 525 
L 2438 3041 
L 353 3041 
L 353 3500 
z
" transform="scale(0.015625)"/>
       <path id="DejaVuSans-61" d="M 2194 1759 
Q 1497 1759 1228 1600 
Q 959 1441 959 1056 
Q 959 750 1161 570 
Q 1363 391 1709 391 
Q 2188 391 2477 730 
Q 2766 1069 2766 1631 
L 2766 1759 
L 2194 1759 
z
M 3341 1997 
L 3341 0 
L 2766 0 
L 2766 531 
Q 2569 213 2275 61 
Q 1981 -91 1556 -91 
Q 1019 -91 701 211 
Q 384 513 384 1019 
Q 384 1609 779 1909 
Q 1175 2209 1959 2209 
L 2766 2209 
L 2766 2266 
Q 2766 2663 2505 2880 
Q 2244 3097 1772 3097 
Q 1472 3097 1187 3025 
Q 903 2953 641 2809 
L 641 3341 
Q 956 3463 1253 3523 
Q 1550 3584 1831 3584 
Q 2591 3584 2966 3190 
Q 3341 2797 3341 1997 
z
" transform="scale(0.015625)"/>
       <path id="DejaVuSans-6e" d="M 3513 2113 
L 3513 0 
L 2938 0 
L 2938 2094 
Q 2938 2591 2744 2837 
Q 2550 3084 2163 3084 
Q 1697 3084 1428 2787 
Q 1159 2491 1159 1978 
L 1159 0 
L 581 0 
L 581 3500 
L 1159 3500 
L 1159 2956 
Q 1366 3272 1645 3428 
Q 1925 3584 2291 3584 
Q 2894 3584 3203 3211 
Q 3513 2838 3513 2113 
z
" transform="scale(0.015625)"/>
      </defs>
      <use xlink:href="#DejaVuSans-75"/>
      <use xlink:href="#DejaVuSans-74" x="63.378906"/>
      <use xlink:href="#DejaVuSans-69" x="102.587891"/>
      <use xlink:href="#DejaVuSans-6c" x="130.371094"/>
      <use xlink:href="#DejaVuSans-69" x="158.154297"/>
      <use xlink:href="#DejaVuSans-7a" x="185.9375"/>
      <use xlink:href="#DejaVuSans-61" x="238.427734"/>
      <use xlink:href="#DejaVuSans-74" x="299.707031"/>
      <use xlink:href="#DejaVuSans-69" x="338.916016"/>
      <use xlink:href="#DejaVuSans-6f" x="366.699219"/>
      <use xlink:href="#DejaVuSans-6e" x="427.880859"/>
     </g>
    </g>
   </g>
   <g id="line2d_13">
    <path d="M 73.832727 261.186325 
L 74.918528 266.921866 
L 76.00433 272.019363 
L 77.090131 276.512771 
L 78.175932 280.436047 
L 79.261733 283.823147 
L 80.347534 286.708027 
L 81.433335 289.124642 
L 82.519137 291.10695 
L 83.604938 292.688905 
L 84.690739 293.904465 
L 85.77654 294.787585 
L 86.862341 295.372221 
L 87.948142 295.692329 
L 89.033943 295.781866 
L 90.119745 295.674787 
L 91.205546 295.405049 
L 93.377148 294.513418 
L 98.806154 291.814723 
L 99.891955 291.466127 
L 100.977756 291.26047 
L 102.063557 291.219585 
L 103.149358 291.327489 
L 105.320961 291.896316 
L 107.492563 292.780253 
L 111.835768 294.746663 
L 114.00737 295.455738 
L 116.178972 295.760988 
L 118.350575 295.701395 
L 120.522177 295.401548 
L 125.951183 294.420673 
L 128.122785 294.263738 
L 130.294387 294.378671 
L 133.551791 294.873742 
L 137.894995 295.55055 
L 140.066598 295.645144 
L 142.2382 295.430901 
L 144.409802 294.924695 
L 147.667206 294.063589 
L 149.838808 293.737146 
L 150.924609 293.72934 
L 152.01041 293.861199 
L 153.096212 294.159766 
L 154.182013 294.652083 
L 155.267814 295.364897 
L 157.439416 297.346064 
L 159.611019 299.511411 
L 160.69682 300.446454 
L 161.782621 301.167503 
L 162.868422 301.587879 
L 163.954223 301.620903 
L 165.040024 301.179895 
L 166.125825 300.178176 
L 167.211627 298.529067 
L 168.297428 296.145887 
L 169.383229 292.960225 
L 170.46903 289.042358 
L 172.640632 279.545947 
L 175.898036 263.163159 
L 178.069638 252.381924 
L 180.24124 242.966046 
L 181.327042 239.105703 
L 182.412843 235.98805 
L 183.498644 233.664781 
L 184.584445 232.061746 
L 185.670246 231.093972 
L 186.756047 230.676484 
L 187.841849 230.724308 
L 188.92765 231.152471 
L 190.013451 231.875999 
L 192.185053 233.869251 
L 194.356656 236.024272 
L 195.442457 236.950011 
L 196.528258 237.673322 
L 197.614059 238.191668 
L 198.69986 238.527986 
L 199.785661 238.705247 
L 200.871462 238.746425 
L 203.043065 238.512417 
L 206.300468 237.715085 
L 209.557872 236.93315 
L 211.729474 236.658782 
L 213.901076 236.568494 
L 217.15848 236.669052 
L 225.844889 237.166249 
L 231.273895 237.145415 
L 244.303509 236.988962 
L 263.847929 237.013046 
L 271.448538 236.596742 
L 273.62014 236.658008 
L 275.791742 236.887326 
L 277.963344 237.325899 
L 283.39235 238.612639 
L 285.563953 238.733039 
L 286.649754 238.618536 
L 287.735555 238.357494 
L 288.821356 237.92736 
L 289.907157 237.305582 
L 290.992958 236.47488 
L 293.164561 234.402346 
L 295.336163 232.341427 
L 296.421964 231.525904 
L 297.507765 230.965981 
L 298.593566 230.74589 
L 299.679368 230.949863 
L 300.765169 231.662132 
L 301.85097 232.966929 
L 302.936771 234.948486 
L 304.022572 237.690708 
L 305.108373 241.214971 
L 306.194175 245.406355 
L 308.365777 255.258999 
L 313.794783 282.264159 
L 314.880584 287.009106 
L 315.966385 291.225322 
L 317.052186 294.779934 
L 318.137987 297.555335 
L 319.223788 299.566787 
L 320.30959 300.897961 
L 321.395391 301.633097 
L 322.481192 301.856431 
L 323.566993 301.652203 
L 324.652794 301.104651 
L 325.738595 300.298012 
L 327.910198 298.244429 
L 330.0818 296.16536 
L 331.167601 295.326422 
L 332.253402 294.696348 
L 333.339203 294.258896 
L 334.425005 293.991496 
L 335.510806 293.871578 
L 337.682408 293.983914 
L 339.85401 294.415347 
L 345.283016 295.707846 
L 347.454618 295.939942 
L 350.712022 295.986002 
L 355.055227 295.737192 
L 360.484232 295.454145 
L 365.913238 295.449753 
L 380.028653 295.582108 
L 398.487273 295.549725 
L 398.487273 295.549725 
" clip-path="url(#p2e0ec66947)" style="fill: none; stroke: #ff0000; stroke-width: 1.5; stroke-linecap: square"/>
   </g>
   <g id="line2d_14">
    <path d="M 73.832727 276.652217 
L 74.918528 280.475911 
L 76.00433 283.874242 
L 77.090131 286.869848 
L 78.175932 289.485365 
L 79.261733 291.743431 
L 80.347534 293.666684 
L 81.433335 295.277762 
L 82.519137 296.5993 
L 83.604938 297.653937 
L 84.690739 298.46431 
L 85.77654 299.053057 
L 86.862341 299.442814 
L 87.948142 299.656219 
L 89.033943 299.715911 
L 91.205546 299.464699 
L 93.377148 298.870278 
L 98.806154 297.071149 
L 100.977756 296.701647 
L 103.149358 296.746326 
L 105.320961 297.125544 
L 108.578364 298.049363 
L 111.835768 299.025775 
L 114.00737 299.498492 
L 116.178972 299.701992 
L 118.350575 299.662263 
L 121.607978 299.32838 
L 125.951183 298.808448 
L 128.122785 298.703825 
L 130.294387 298.780447 
L 134.637592 299.240693 
L 137.894995 299.5617 
L 140.066598 299.624763 
L 142.2382 299.481934 
L 145.495604 298.944127 
L 148.753007 298.433051 
L 150.924609 298.34756 
L 153.096212 298.634511 
L 154.182013 298.962722 
L 155.267814 299.437931 
L 157.439416 300.758709 
L 159.611019 302.202274 
L 160.69682 302.825636 
L 161.782621 303.306335 
L 162.868422 303.586586 
L 163.954223 303.608602 
L 165.040024 303.314597 
L 166.125825 302.646784 
L 167.211627 301.547378 
L 168.297428 299.958591 
L 169.383229 297.834817 
L 170.46903 295.222906 
L 172.640632 288.891965 
L 175.898036 277.970106 
L 178.069638 270.782616 
L 180.24124 264.505364 
L 181.327042 261.931802 
L 182.412843 259.853367 
L 183.498644 258.304521 
L 184.584445 257.235831 
L 185.670246 256.590648 
L 186.756047 256.312323 
L 187.841849 256.344206 
L 188.92765 256.629648 
L 190.013451 257.111999 
L 192.185053 258.440834 
L 194.356656 259.877515 
L 195.442457 260.494674 
L 196.528258 260.976882 
L 197.614059 261.322446 
L 199.785661 261.664832 
L 201.957264 261.644327 
L 204.128866 261.383451 
L 210.643673 260.374558 
L 213.901076 260.24033 
L 218.244281 260.355033 
L 225.844889 260.638833 
L 233.445497 260.594658 
L 245.38931 260.525229 
L 263.847929 260.536697 
L 271.448538 260.259161 
L 274.705941 260.360442 
L 277.963344 260.745266 
L 283.39235 261.603093 
L 285.563953 261.683359 
L 287.735555 261.432996 
L 288.821356 261.14624 
L 289.907157 260.731721 
L 292.07876 259.514185 
L 295.336163 257.422285 
L 296.421964 256.878603 
L 297.507765 256.505321 
L 298.593566 256.358593 
L 299.679368 256.494575 
L 300.765169 256.969421 
L 301.85097 257.839286 
L 302.936771 259.160324 
L 304.022572 260.988472 
L 305.108373 263.337981 
L 306.194175 266.132237 
L 308.365777 272.700666 
L 313.794783 290.704106 
L 314.880584 293.867404 
L 315.966385 296.678214 
L 317.052186 299.047956 
L 318.137987 300.898224 
L 319.223788 302.239191 
L 320.30959 303.126641 
L 321.395391 303.616731 
L 322.481192 303.765621 
L 323.566993 303.629469 
L 324.652794 303.264434 
L 326.824396 302.07235 
L 330.0818 299.971573 
L 331.167601 299.412281 
L 332.253402 298.992232 
L 334.425005 298.522331 
L 336.596607 298.445716 
L 338.768209 298.642018 
L 346.368817 299.76004 
L 349.626221 299.863249 
L 353.969425 299.737676 
L 361.570033 299.484995 
L 370.256443 299.547947 
L 382.200255 299.574503 
L 398.487273 299.56115 
L 398.487273 299.56115 
" clip-path="url(#p2e0ec66947)" style="fill: none; stroke: #0000ff; stroke-width: 1.5; stroke-linecap: square"/>
   </g>
   <g id="line2d_15">
    <path d="M 73.832727 279.745395 
L 74.918528 283.18672 
L 76.00433 286.245218 
L 77.090131 288.941263 
L 78.175932 291.295228 
L 79.261733 293.327488 
L 80.347534 295.058416 
L 81.433335 296.508385 
L 82.519137 297.69777 
L 83.604938 298.646943 
L 84.690739 299.376279 
L 85.77654 299.906151 
L 86.862341 300.256933 
L 87.948142 300.448998 
L 89.033943 300.50272 
L 91.205546 300.276629 
L 93.377148 299.741651 
L 98.806154 298.122434 
L 100.977756 297.789882 
L 103.149358 297.830093 
L 105.320961 298.17139 
L 108.578364 299.002827 
L 112.921569 300.119695 
L 115.093171 300.430589 
L 117.264773 300.495019 
L 120.522177 300.274529 
L 127.036984 299.61947 
L 129.208586 299.607839 
L 132.46599 299.844172 
L 137.894995 300.36393 
L 140.066598 300.420686 
L 142.2382 300.292141 
L 145.495604 299.808114 
L 148.753007 299.348146 
L 150.924609 299.271204 
L 153.096212 299.52946 
L 154.182013 299.82485 
L 155.267814 300.252538 
L 157.439416 301.441238 
L 160.69682 303.301472 
L 161.782621 303.734102 
L 162.868422 303.986327 
L 163.954223 304.006142 
L 165.040024 303.741537 
L 166.125825 303.140506 
L 167.211627 302.15104 
L 168.297428 300.721132 
L 169.383229 298.809735 
L 170.46903 296.459015 
L 172.640632 290.761168 
L 175.898036 280.931495 
L 178.069638 274.462755 
L 180.24124 268.813228 
L 181.327042 266.497022 
L 182.412843 264.62643 
L 183.498644 263.232469 
L 184.584445 262.270648 
L 185.670246 261.689983 
L 186.756047 261.43949 
L 187.841849 261.468185 
L 188.92765 261.725083 
L 190.013451 262.159199 
L 192.185053 263.35515 
L 194.356656 264.648163 
L 196.528258 265.637593 
L 198.69986 266.150392 
L 200.871462 266.281455 
L 203.043065 266.14105 
L 207.386269 265.486907 
L 210.643673 265.095502 
L 213.901076 264.974697 
L 218.244281 265.07793 
L 225.844889 265.33335 
L 233.445497 265.293592 
L 245.38931 265.231106 
L 263.847929 265.241427 
L 272.534339 264.99922 
L 275.791742 265.165996 
L 279.049146 265.597015 
L 283.39235 266.201183 
L 285.563953 266.273423 
L 287.735555 266.048096 
L 288.821356 265.790016 
L 289.907157 265.416949 
L 292.07876 264.321166 
L 295.336163 262.438456 
L 296.421964 261.949143 
L 297.507765 261.613189 
L 298.593566 261.481134 
L 299.679368 261.603518 
L 300.765169 262.030879 
L 301.85097 262.813757 
L 302.936771 264.002691 
L 304.022572 265.648025 
L 305.108373 267.762582 
L 306.194175 270.277413 
L 308.365777 276.188999 
L 313.794783 292.392096 
L 314.880584 295.239064 
L 315.966385 297.768793 
L 317.052186 299.90156 
L 318.137987 301.566801 
L 319.223788 302.773672 
L 320.30959 303.572377 
L 321.395391 304.013458 
L 322.481192 304.147459 
L 323.566993 304.024922 
L 324.652794 303.69639 
L 326.824396 302.623515 
L 330.0818 300.732816 
L 331.167601 300.229453 
L 333.339203 299.588938 
L 335.510806 299.356547 
L 337.682408 299.423948 
L 340.939811 299.850181 
L 345.283016 300.458308 
L 348.54042 300.62732 
L 352.883624 300.565069 
L 362.655835 300.289989 
L 398.487273 300.363435 
L 398.487273 300.363435 
" clip-path="url(#p2e0ec66947)" style="fill: none; stroke: #008000; stroke-width: 1.5; stroke-linecap: square"/>
   </g>
   <g id="line2d_16">
    <path d="M 73.832727 205.509116 
L 74.918528 218.127306 
L 76.00433 229.341799 
L 77.090131 239.227297 
L 78.175932 247.858504 
L 79.261733 255.310124 
L 80.347534 261.656859 
L 81.433335 266.973413 
L 82.519137 271.33449 
L 83.604938 274.814792 
L 84.690739 277.489023 
L 85.77654 279.431887 
L 86.862341 280.718086 
L 87.948142 281.422324 
L 89.033943 281.619305 
L 90.119745 281.383732 
L 91.205546 280.790307 
L 92.291347 279.913735 
L 94.462949 277.609961 
L 97.720353 273.898278 
L 98.806154 272.89159 
L 99.891955 272.124678 
L 100.977756 271.672234 
L 102.063557 271.582287 
L 103.149358 271.819676 
L 104.23516 272.33306 
L 105.320961 273.071096 
L 107.492563 275.015758 
L 111.835768 279.341858 
L 112.921569 280.214883 
L 114.00737 280.901824 
L 115.093171 281.354825 
L 116.178972 281.573373 
L 117.264773 281.591069 
L 118.350575 281.442269 
L 120.522177 280.782606 
L 125.951183 278.62468 
L 127.036984 278.380724 
L 128.122785 278.279424 
L 129.208586 278.338075 
L 131.380189 278.831353 
L 134.637592 280.051085 
L 136.809194 280.826249 
L 138.980797 281.284724 
L 140.066598 281.318517 
L 141.152399 281.181114 
L 142.2382 280.847182 
L 144.409802 279.733528 
L 147.667206 277.839096 
L 148.753007 277.385869 
L 149.838808 277.120922 
L 150.924609 277.103747 
L 152.01041 277.393837 
L 153.096212 278.050685 
L 154.182013 279.133783 
L 155.267814 280.701973 
L 156.353615 282.73526 
L 160.69682 291.881398 
L 161.782621 293.467706 
L 162.868422 294.392534 
L 163.954223 294.465187 
L 165.040024 293.49497 
L 166.125825 291.291188 
L 167.211627 287.663146 
L 168.297428 282.420151 
L 169.383229 275.411696 
L 170.46903 266.792389 
L 172.640632 245.900284 
L 175.898036 209.85815 
L 178.069638 186.139433 
L 180.24124 165.424502 
L 181.327042 156.931747 
L 182.412843 150.072911 
L 183.498644 144.961718 
L 184.584445 141.435041 
L 185.670246 139.305938 
L 186.756047 138.387464 
L 187.841849 138.492678 
L 188.92765 139.434637 
L 190.013451 141.026397 
L 191.099252 143.081017 
L 195.442457 152.189224 
L 196.528258 153.780509 
L 197.614059 154.920871 
L 198.69986 155.660769 
L 199.785661 156.050744 
L 200.871462 156.141335 
L 201.957264 155.98308 
L 203.043065 155.626518 
L 205.214667 154.520633 
L 208.472071 152.637983 
L 209.557872 152.15213 
L 211.729474 151.54852 
L 213.901076 151.349888 
L 216.072679 151.446447 
L 219.330082 151.904609 
L 223.673287 152.526521 
L 226.93069 152.693413 
L 231.273895 152.619112 
L 241.046105 152.271675 
L 247.560912 152.340555 
L 259.504725 152.671746 
L 262.762128 152.459226 
L 267.105333 151.829403 
L 270.362736 151.450298 
L 272.534339 151.439808 
L 274.705941 151.746257 
L 275.791742 152.051318 
L 277.963344 153.016177 
L 282.306549 155.429451 
L 283.39235 155.847005 
L 284.478151 156.091022 
L 285.563953 156.111885 
L 286.649754 155.859979 
L 287.735555 155.285686 
L 288.821356 154.339392 
L 289.907157 152.97148 
L 290.992958 151.143936 
L 293.164561 146.584361 
L 295.336163 142.05034 
L 296.421964 140.256189 
L 297.507765 139.024358 
L 298.593566 138.540158 
L 299.679368 138.988898 
L 300.765169 140.55589 
L 301.85097 143.426443 
L 302.936771 147.785869 
L 304.022572 153.818757 
L 305.108373 161.572136 
L 306.194175 170.793182 
L 308.365777 192.468997 
L 313.794783 251.88035 
L 314.880584 262.319233 
L 315.966385 271.594907 
L 317.052186 279.415054 
L 318.137987 285.520938 
L 319.223788 289.946132 
L 320.30959 292.874715 
L 321.395391 294.492013 
L 322.481192 294.983349 
L 323.566993 294.534047 
L 324.652794 293.329432 
L 325.738595 291.554827 
L 327.910198 287.036944 
L 330.0818 282.462992 
L 331.167601 280.617328 
L 332.253402 279.231166 
L 333.339203 278.268771 
L 334.425005 277.680491 
L 335.510806 277.416672 
L 336.596607 277.427663 
L 337.682408 277.66381 
L 338.768209 278.075461 
L 340.939811 279.226662 
L 344.197215 281.028425 
L 345.283016 281.456461 
L 347.454618 281.967073 
L 349.626221 282.105522 
L 351.797823 281.978108 
L 356.141028 281.350885 
L 359.398431 280.965901 
L 362.655835 280.839294 
L 366.999039 280.927897 
L 375.685448 281.19048 
L 384.371858 281.118375 
L 395.229869 281.03611 
L 398.487273 281.108594 
L 398.487273 281.108594 
" clip-path="url(#p2e0ec66947)" style="fill: none; stroke: #000000; stroke-width: 1.5; stroke-linecap: square"/>
   </g>
   <g id="patch_3">
    <path d="M 57.6 307.584 
L 57.6 41.472 
" style="fill: none; stroke: #000000; stroke-width: 0.8; stroke-linejoin: miter; stroke-linecap: square"/>
   </g>
   <g id="patch_4">
    <path d="M 414.72 307.584 
L 414.72 41.472 
" style="fill: none; stroke: #000000; stroke-width: 0.8; stroke-linejoin: miter; stroke-linecap: square"/>
   </g>
   <g id="patch_5">
    <path d="M 57.6 307.584 
L 414.72 307.584 
" style="fill: none; stroke: #000000; stroke-width: 0.8; stroke-linejoin: miter; stroke-linecap: square"/>
   </g>
   <g id="patch_6">
    <path d="M 57.6 41.472 
L 414.72 41.472 
" style="fill: none; stroke: #000000; stroke-width: 0.8; stroke-linejoin: miter; stroke-linecap: square"/>
   </g>
   <g id="legend_1">
    <g id="patch_7">
     <path d="M 337.7325 108.1845 
L 407.72 108.1845 
Q 409.72 108.1845 409.72 106.1845 
L 409.72 48.472 
Q 409.72 46.472 407.72 46.472 
L 337.7325 46.472 
Q 335.7325 46.472 335.7325 48.472 
L 335.7325 106.1845 
Q 335.7325 108.1845 337.7325 108.1845 
z
" style="fill: #ffffff; opacity: 0.8; stroke: #cccccc; stroke-linejoin: miter"/>
    </g>
    <g id="line2d_17">
     <path d="M 339.7325 54.570438 
L 349.7325 54.570438 
L 359.7325 54.570438 
" style="fill: none; stroke: #ff0000; stroke-width: 1.5; stroke-linecap: square"/>
    </g>
    <g id="text_15">
     <!-- U(1) -->
     <g transform="translate(367.7325 58.070438)scale(0.1 -0.1)">
      <defs>
       <path id="DejaVuSans-55" d="M 556 4666 
L 1191 4666 
L 1191 1831 
Q 1191 1081 1462 751 
Q 1734 422 2344 422 
Q 2950 422 3222 751 
Q 3494 1081 3494 1831 
L 3494 4666 
L 4128 4666 
L 4128 1753 
Q 4128 841 3676 375 
Q 3225 -91 2344 -91 
Q 1459 -91 1007 375 
Q 556 841 556 1753 
L 556 4666 
z
" transform="scale(0.015625)"/>
      </defs>
      <use xlink:href="#DejaVuSans-55"/>
      <use xlink:href="#DejaVuSans-28" x="73.193359"/>
      <use xlink:href="#DejaVuSans-31" x="112.207031"/>
      <use xlink:href="#DejaVuSans-29" x="175.830078"/>
     </g>
    </g>
    <g id="line2d_18">
     <path d="M 339.7325 69.248563 
L 349.7325 69.248563 
L 359.7325 69.248563 
" style="fill: none; stroke: #0000ff; stroke-width: 1.5; stroke-linecap: square"/>
    </g>
    <g id="text_16">
     <!-- U(2) -->
     <g transform="translate(367.7325 72.748563)scale(0.1 -0.1)">
      <use xlink:href="#DejaVuSans-55"/>
      <use xlink:href="#DejaVuSans-28" x="73.193359"/>
      <use xlink:href="#DejaVuSans-32" x="112.207031"/>
      <use xlink:href="#DejaVuSans-29" x="175.830078"/>
     </g>
    </g>
    <g id="line2d_19">
     <path d="M 339.7325 83.926688 
L 349.7325 83.926688 
L 359.7325 83.926688 
" style="fill: none; stroke: #008000; stroke-width: 1.5; stroke-linecap: square"/>
    </g>
    <g id="text_17">
     <!-- U(3) -->
     <g transform="translate(367.7325 87.426688)scale(0.1 -0.1)">
      <defs>
       <path id="DejaVuSans-33" d="M 2597 2516 
Q 3050 2419 3304 2112 
Q 3559 1806 3559 1356 
Q 3559 666 3084 287 
Q 2609 -91 1734 -91 
Q 1441 -91 1130 -33 
Q 819 25 488 141 
L 488 750 
Q 750 597 1062 519 
Q 1375 441 1716 441 
Q 2309 441 2620 675 
Q 2931 909 2931 1356 
Q 2931 1769 2642 2001 
Q 2353 2234 1838 2234 
L 1294 2234 
L 1294 2753 
L 1863 2753 
Q 2328 2753 2575 2939 
Q 2822 3125 2822 3475 
Q 2822 3834 2567 4026 
Q 2313 4219 1838 4219 
Q 1578 4219 1281 4162 
Q 984 4106 628 3988 
L 628 4550 
Q 988 4650 1302 4700 
Q 1616 4750 1894 4750 
Q 2613 4750 3031 4423 
Q 3450 4097 3450 3541 
Q 3450 3153 3228 2886 
Q 3006 2619 2597 2516 
z
" transform="scale(0.015625)"/>
      </defs>
      <use xlink:href="#DejaVuSans-55"/>
      <use xlink:href="#DejaVuSans-28" x="73.193359"/>
      <use xlink:href="#DejaVuSans-33" x="112.207031"/>
      <use xlink:href="#DejaVuSans-29" x="175.830078"/>
     </g>
    </g>
    <g id="line2d_20">
     <path d="M 339.7325 98.604813 
L 349.7325 98.604813 
L 359.7325 98.604813 
" style="fill: none; stroke: #000000; stroke-width: 1.5; stroke-linecap: square"/>
    </g>
    <g id="text_18">
     <!-- U(total) -->
     <g transform="translate(367.7325 102.104813)scale(0.1 -0.1)">
      <use xlink:href="#DejaVuSans-55"/>
      <use xlink:href="#DejaVuSans-28" x="73.193359"/>
      <use xlink:href="#DejaVuSans-74" x="112.207031"/>
      <use xlink:href="#DejaVuSans-6f" x="151.416016"/>
      <use xlink:href="#DejaVuSans-74" x="212.597656"/>
      <use xlink:href="#DejaVuSans-61" x="251.806641"/>
      <use xlink:href="#DejaVuSans-6c" x="313.085938"/>
      <use xlink:href="#DejaVuSans-29" x="340.869141"/>
     </g>
    </g>
   </g>
  </g>
 </g>
 <defs>
  <clipPath id="p2e0ec66947">
   <rect x="57.6" y="41.472" width="357.12" height="266.112"/>
  </clipPath>
 </defs>
</svg>
