<?xml version="1.0" encoding="utf-8" standalone="no"?>
<!DOCTYPE svg PUBLIC "-//W3C//DTD SVG 1.1//EN"
  "http://www.w3.org/Graphics/SVG/1.1/DTD/svg11.dtd">
<svg xmlns:xlink="http://www.w3.org/1999/xlink" width="460.8pt" height="345.6pt" viewBox="0 0 460.8 345.6" xmlns="http://www.w3.org/2000/svg" version="1.1">
 <metadata>
  <rdf:RDF xmlns:dc="http://purl.org/dc/elements/1.1/" xmlns:cc="http://creativecommons.org/ns#" xmlns:rdf="http://www.w3.org/1999/02/22-rdf-syntax-ns#">
   <cc:Work>
    <dc:type rdf:resource="http://purl.org/dc/dcmitype/StillImage"/>
    <dc:date>2022-12-01T15:02:22.729596</dc:date>
    <dc:format>image/svg+xml</dc:format>
    <dc:creator>
     <cc:Agent>
      <dc:title>Matplotlib v3.5.0, https://matplotlib.org/</dc:title>
     </cc:Agent>
    </dc:creator>
   </cc:Work>
  </rdf:RDF>
 </metadata>
 <defs>
  <style type="text/css">*{stroke-linejoin: round; stroke-linecap: butt}</style>
 </defs>
 <g id="figure_1">
  <g id="patch_1">
   <path d="M 0 345.6 
L 460.8 345.6 
L 460.8 0 
L 0 0 
z
" style="fill: #ffffff"/>
  </g>
  <g id="axes_1">
   <g id="patch_2">
    <path d="M 57.6 307.584 
L 414.72 307.584 
L 414.72 41.472 
L 57.6 41.472 
z
" style="fill: #ffffff"/>
   </g>
   <g id="matplotlib.axis_1">
    <g id="xtick_1">
     <g id="line2d_1">
      <defs>
       <path id="m1884226c33" d="M 0 0 
L 0 3.5 
" style="stroke: #000000; stroke-width: 0.8"/>
      </defs>
      <g>
       <use xlink:href="#m1884226c33" x="73.832727" y="307.584" style="stroke: #000000; stroke-width: 0.8"/>
      </g>
     </g>
     <g id="text_1">
      <!-- 0 -->
      <g transform="translate(70.651477 322.182437)scale(0.1 -0.1)">
       <defs>
        <path id="DejaVuSans-30" d="M 2034 4250 
Q 1547 4250 1301 3770 
Q 1056 3291 1056 2328 
Q 1056 1369 1301 889 
Q 1547 409 2034 409 
Q 2525 409 2770 889 
Q 3016 1369 3016 2328 
Q 3016 3291 2770 3770 
Q 2525 4250 2034 4250 
z
M 2034 4750 
Q 2819 4750 3233 4129 
Q 3647 3509 3647 2328 
Q 3647 1150 3233 529 
Q 2819 -91 2034 -91 
Q 1250 -91 836 529 
Q 422 1150 422 2328 
Q 422 3509 836 4129 
Q 1250 4750 2034 4750 
z
" transform="scale(0.015625)"/>
       </defs>
       <use xlink:href="#DejaVuSans-30"/>
      </g>
     </g>
    </g>
    <g id="xtick_2">
     <g id="line2d_2">
      <g>
       <use xlink:href="#m1884226c33" x="141.469091" y="307.584" style="stroke: #000000; stroke-width: 0.8"/>
      </g>
     </g>
     <g id="text_2">
      <!-- 5 -->
      <g transform="translate(138.287841 322.182437)scale(0.1 -0.1)">
       <defs>
        <path id="DejaVuSans-35" d="M 691 4666 
L 3169 4666 
L 3169 4134 
L 1269 4134 
L 1269 2991 
Q 1406 3038 1543 3061 
Q 1681 3084 1819 3084 
Q 2600 3084 3056 2656 
Q 3513 2228 3513 1497 
Q 3513 744 3044 326 
Q 2575 -91 1722 -91 
Q 1428 -91 1123 -41 
Q 819 9 494 109 
L 494 744 
Q 775 591 1075 516 
Q 1375 441 1709 441 
Q 2250 441 2565 725 
Q 2881 1009 2881 1497 
Q 2881 1984 2565 2268 
Q 2250 2553 1709 2553 
Q 1456 2553 1204 2497 
Q 953 2441 691 2322 
L 691 4666 
z
" transform="scale(0.015625)"/>
       </defs>
       <use xlink:href="#DejaVuSans-35"/>
      </g>
     </g>
    </g>
    <g id="xtick_3">
     <g id="line2d_3">
      <g>
       <use xlink:href="#m1884226c33" x="209.105455" y="307.584" style="stroke: #000000; stroke-width: 0.8"/>
      </g>
     </g>
     <g id="text_3">
      <!-- 10 -->
      <g transform="translate(202.742955 322.182437)scale(0.1 -0.1)">
       <defs>
        <path id="DejaVuSans-31" d="M 794 531 
L 1825 531 
L 1825 4091 
L 703 3866 
L 703 4441 
L 1819 4666 
L 2450 4666 
L 2450 531 
L 3481 531 
L 3481 0 
L 794 0 
L 794 531 
z
" transform="scale(0.015625)"/>
       </defs>
       <use xlink:href="#DejaVuSans-31"/>
       <use xlink:href="#DejaVuSans-30" x="63.623047"/>
      </g>
     </g>
    </g>
    <g id="xtick_4">
     <g id="line2d_4">
      <g>
       <use xlink:href="#m1884226c33" x="276.741818" y="307.584" style="stroke: #000000; stroke-width: 0.8"/>
      </g>
     </g>
     <g id="text_4">
      <!-- 15 -->
      <g transform="translate(270.379318 322.182437)scale(0.1 -0.1)">
       <use xlink:href="#DejaVuSans-31"/>
       <use xlink:href="#DejaVuSans-35" x="63.623047"/>
      </g>
     </g>
    </g>
    <g id="xtick_5">
     <g id="line2d_5">
      <g>
       <use xlink:href="#m1884226c33" x="344.378182" y="307.584" style="stroke: #000000; stroke-width: 0.8"/>
      </g>
     </g>
     <g id="text_5">
      <!-- 20 -->
      <g transform="translate(338.015682 322.182437)scale(0.1 -0.1)">
       <defs>
        <path id="DejaVuSans-32" d="M 1228 531 
L 3431 531 
L 3431 0 
L 469 0 
L 469 531 
Q 828 903 1448 1529 
Q 2069 2156 2228 2338 
Q 2531 2678 2651 2914 
Q 2772 3150 2772 3378 
Q 2772 3750 2511 3984 
Q 2250 4219 1831 4219 
Q 1534 4219 1204 4116 
Q 875 4013 500 3803 
L 500 4441 
Q 881 4594 1212 4672 
Q 1544 4750 1819 4750 
Q 2544 4750 2975 4387 
Q 3406 4025 3406 3419 
Q 3406 3131 3298 2873 
Q 3191 2616 2906 2266 
Q 2828 2175 2409 1742 
Q 1991 1309 1228 531 
z
" transform="scale(0.015625)"/>
       </defs>
       <use xlink:href="#DejaVuSans-32"/>
       <use xlink:href="#DejaVuSans-30" x="63.623047"/>
      </g>
     </g>
    </g>
    <g id="xtick_6">
     <g id="line2d_6">
      <g>
       <use xlink:href="#m1884226c33" x="412.014545" y="307.584" style="stroke: #000000; stroke-width: 0.8"/>
      </g>
     </g>
     <g id="text_6">
      <!-- 25 -->
      <g transform="translate(405.652045 322.182437)scale(0.1 -0.1)">
       <use xlink:href="#DejaVuSans-32"/>
       <use xlink:href="#DejaVuSans-35" x="63.623047"/>
      </g>
     </g>
    </g>
    <g id="text_7">
     <!-- time(hours) -->
     <g transform="translate(206.905312 335.860562)scale(0.1 -0.1)">
      <defs>
       <path id="DejaVuSans-74" d="M 1172 4494 
L 1172 3500 
L 2356 3500 
L 2356 3053 
L 1172 3053 
L 1172 1153 
Q 1172 725 1289 603 
Q 1406 481 1766 481 
L 2356 481 
L 2356 0 
L 1766 0 
Q 1100 0 847 248 
Q 594 497 594 1153 
L 594 3053 
L 172 3053 
L 172 3500 
L 594 3500 
L 594 4494 
L 1172 4494 
z
" transform="scale(0.015625)"/>
       <path id="DejaVuSans-69" d="M 603 3500 
L 1178 3500 
L 1178 0 
L 603 0 
L 603 3500 
z
M 603 4863 
L 1178 4863 
L 1178 4134 
L 603 4134 
L 603 4863 
z
" transform="scale(0.015625)"/>
       <path id="DejaVuSans-6d" d="M 3328 2828 
Q 3544 3216 3844 3400 
Q 4144 3584 4550 3584 
Q 5097 3584 5394 3201 
Q 5691 2819 5691 2113 
L 5691 0 
L 5113 0 
L 5113 2094 
Q 5113 2597 4934 2840 
Q 4756 3084 4391 3084 
Q 3944 3084 3684 2787 
Q 3425 2491 3425 1978 
L 3425 0 
L 2847 0 
L 2847 2094 
Q 2847 2600 2669 2842 
Q 2491 3084 2119 3084 
Q 1678 3084 1418 2786 
Q 1159 2488 1159 1978 
L 1159 0 
L 581 0 
L 581 3500 
L 1159 3500 
L 1159 2956 
Q 1356 3278 1631 3431 
Q 1906 3584 2284 3584 
Q 2666 3584 2933 3390 
Q 3200 3197 3328 2828 
z
" transform="scale(0.015625)"/>
       <path id="DejaVuSans-65" d="M 3597 1894 
L 3597 1613 
L 953 1613 
Q 991 1019 1311 708 
Q 1631 397 2203 397 
Q 2534 397 2845 478 
Q 3156 559 3463 722 
L 3463 178 
Q 3153 47 2828 -22 
Q 2503 -91 2169 -91 
Q 1331 -91 842 396 
Q 353 884 353 1716 
Q 353 2575 817 3079 
Q 1281 3584 2069 3584 
Q 2775 3584 3186 3129 
Q 3597 2675 3597 1894 
z
M 3022 2063 
Q 3016 2534 2758 2815 
Q 2500 3097 2075 3097 
Q 1594 3097 1305 2825 
Q 1016 2553 972 2059 
L 3022 2063 
z
" transform="scale(0.015625)"/>
       <path id="DejaVuSans-28" d="M 1984 4856 
Q 1566 4138 1362 3434 
Q 1159 2731 1159 2009 
Q 1159 1288 1364 580 
Q 1569 -128 1984 -844 
L 1484 -844 
Q 1016 -109 783 600 
Q 550 1309 550 2009 
Q 550 2706 781 3412 
Q 1013 4119 1484 4856 
L 1984 4856 
z
" transform="scale(0.015625)"/>
       <path id="DejaVuSans-68" d="M 3513 2113 
L 3513 0 
L 2938 0 
L 2938 2094 
Q 2938 2591 2744 2837 
Q 2550 3084 2163 3084 
Q 1697 3084 1428 2787 
Q 1159 2491 1159 1978 
L 1159 0 
L 581 0 
L 581 4863 
L 1159 4863 
L 1159 2956 
Q 1366 3272 1645 3428 
Q 1925 3584 2291 3584 
Q 2894 3584 3203 3211 
Q 3513 2838 3513 2113 
z
" transform="scale(0.015625)"/>
       <path id="DejaVuSans-6f" d="M 1959 3097 
Q 1497 3097 1228 2736 
Q 959 2375 959 1747 
Q 959 1119 1226 758 
Q 1494 397 1959 397 
Q 2419 397 2687 759 
Q 2956 1122 2956 1747 
Q 2956 2369 2687 2733 
Q 2419 3097 1959 3097 
z
M 1959 3584 
Q 2709 3584 3137 3096 
Q 3566 2609 3566 1747 
Q 3566 888 3137 398 
Q 2709 -91 1959 -91 
Q 1206 -91 779 398 
Q 353 888 353 1747 
Q 353 2609 779 3096 
Q 1206 3584 1959 3584 
z
" transform="scale(0.015625)"/>
       <path id="DejaVuSans-75" d="M 544 1381 
L 544 3500 
L 1119 3500 
L 1119 1403 
Q 1119 906 1312 657 
Q 1506 409 1894 409 
Q 2359 409 2629 706 
Q 2900 1003 2900 1516 
L 2900 3500 
L 3475 3500 
L 3475 0 
L 2900 0 
L 2900 538 
Q 2691 219 2414 64 
Q 2138 -91 1772 -91 
Q 1169 -91 856 284 
Q 544 659 544 1381 
z
M 1991 3584 
L 1991 3584 
z
" transform="scale(0.015625)"/>
       <path id="DejaVuSans-72" d="M 2631 2963 
Q 2534 3019 2420 3045 
Q 2306 3072 2169 3072 
Q 1681 3072 1420 2755 
Q 1159 2438 1159 1844 
L 1159 0 
L 581 0 
L 581 3500 
L 1159 3500 
L 1159 2956 
Q 1341 3275 1631 3429 
Q 1922 3584 2338 3584 
Q 2397 3584 2469 3576 
Q 2541 3569 2628 3553 
L 2631 2963 
z
" transform="scale(0.015625)"/>
       <path id="DejaVuSans-73" d="M 2834 3397 
L 2834 2853 
Q 2591 2978 2328 3040 
Q 2066 3103 1784 3103 
Q 1356 3103 1142 2972 
Q 928 2841 928 2578 
Q 928 2378 1081 2264 
Q 1234 2150 1697 2047 
L 1894 2003 
Q 2506 1872 2764 1633 
Q 3022 1394 3022 966 
Q 3022 478 2636 193 
Q 2250 -91 1575 -91 
Q 1294 -91 989 -36 
Q 684 19 347 128 
L 347 722 
Q 666 556 975 473 
Q 1284 391 1588 391 
Q 1994 391 2212 530 
Q 2431 669 2431 922 
Q 2431 1156 2273 1281 
Q 2116 1406 1581 1522 
L 1381 1569 
Q 847 1681 609 1914 
Q 372 2147 372 2553 
Q 372 3047 722 3315 
Q 1072 3584 1716 3584 
Q 2034 3584 2315 3537 
Q 2597 3491 2834 3397 
z
" transform="scale(0.015625)"/>
       <path id="DejaVuSans-29" d="M 513 4856 
L 1013 4856 
Q 1481 4119 1714 3412 
Q 1947 2706 1947 2009 
Q 1947 1309 1714 600 
Q 1481 -109 1013 -844 
L 513 -844 
Q 928 -128 1133 580 
Q 1338 1288 1338 2009 
Q 1338 2731 1133 3434 
Q 928 4138 513 4856 
z
" transform="scale(0.015625)"/>
      </defs>
      <use xlink:href="#DejaVuSans-74"/>
      <use xlink:href="#DejaVuSans-69" x="39.208984"/>
      <use xlink:href="#DejaVuSans-6d" x="66.992188"/>
      <use xlink:href="#DejaVuSans-65" x="164.404297"/>
      <use xlink:href="#DejaVuSans-28" x="225.927734"/>
      <use xlink:href="#DejaVuSans-68" x="264.941406"/>
      <use xlink:href="#DejaVuSans-6f" x="328.320312"/>
      <use xlink:href="#DejaVuSans-75" x="389.501953"/>
      <use xlink:href="#DejaVuSans-72" x="452.880859"/>
      <use xlink:href="#DejaVuSans-73" x="493.994141"/>
      <use xlink:href="#DejaVuSans-29" x="546.09375"/>
     </g>
    </g>
   </g>
   <g id="matplotlib.axis_2">
    <g id="ytick_1">
     <g id="line2d_7">
      <defs>
       <path id="m383ed3120f" d="M 0 0 
L -3.5 0 
" style="stroke: #000000; stroke-width: 0.8"/>
      </defs>
      <g>
       <use xlink:href="#m383ed3120f" x="57.6" y="307.584" style="stroke: #000000; stroke-width: 0.8"/>
      </g>
     </g>
     <g id="text_8">
      <!-- 0.0 -->
      <g transform="translate(34.696875 311.383219)scale(0.1 -0.1)">
       <defs>
        <path id="DejaVuSans-2e" d="M 684 794 
L 1344 794 
L 1344 0 
L 684 0 
L 684 794 
z
" transform="scale(0.015625)"/>
       </defs>
       <use xlink:href="#DejaVuSans-30"/>
       <use xlink:href="#DejaVuSans-2e" x="63.623047"/>
       <use xlink:href="#DejaVuSans-30" x="95.410156"/>
      </g>
     </g>
    </g>
    <g id="ytick_2">
     <g id="line2d_8">
      <g>
       <use xlink:href="#m383ed3120f" x="57.6" y="254.3616" style="stroke: #000000; stroke-width: 0.8"/>
      </g>
     </g>
     <g id="text_9">
      <!-- 0.2 -->
      <g transform="translate(34.696875 258.160819)scale(0.1 -0.1)">
       <use xlink:href="#DejaVuSans-30"/>
       <use xlink:href="#DejaVuSans-2e" x="63.623047"/>
       <use xlink:href="#DejaVuSans-32" x="95.410156"/>
      </g>
     </g>
    </g>
    <g id="ytick_3">
     <g id="line2d_9">
      <g>
       <use xlink:href="#m383ed3120f" x="57.6" y="201.1392" style="stroke: #000000; stroke-width: 0.8"/>
      </g>
     </g>
     <g id="text_10">
      <!-- 0.4 -->
      <g transform="translate(34.696875 204.938419)scale(0.1 -0.1)">
       <defs>
        <path id="DejaVuSans-34" d="M 2419 4116 
L 825 1625 
L 2419 1625 
L 2419 4116 
z
M 2253 4666 
L 3047 4666 
L 3047 1625 
L 3713 1625 
L 3713 1100 
L 3047 1100 
L 3047 0 
L 2419 0 
L 2419 1100 
L 313 1100 
L 313 1709 
L 2253 4666 
z
" transform="scale(0.015625)"/>
       </defs>
       <use xlink:href="#DejaVuSans-30"/>
       <use xlink:href="#DejaVuSans-2e" x="63.623047"/>
       <use xlink:href="#DejaVuSans-34" x="95.410156"/>
      </g>
     </g>
    </g>
    <g id="ytick_4">
     <g id="line2d_10">
      <g>
       <use xlink:href="#m383ed3120f" x="57.6" y="147.9168" style="stroke: #000000; stroke-width: 0.8"/>
      </g>
     </g>
     <g id="text_11">
      <!-- 0.6 -->
      <g transform="translate(34.696875 151.716019)scale(0.1 -0.1)">
       <defs>
        <path id="DejaVuSans-36" d="M 2113 2584 
Q 1688 2584 1439 2293 
Q 1191 2003 1191 1497 
Q 1191 994 1439 701 
Q 1688 409 2113 409 
Q 2538 409 2786 701 
Q 3034 994 3034 1497 
Q 3034 2003 2786 2293 
Q 2538 2584 2113 2584 
z
M 3366 4563 
L 3366 3988 
Q 3128 4100 2886 4159 
Q 2644 4219 2406 4219 
Q 1781 4219 1451 3797 
Q 1122 3375 1075 2522 
Q 1259 2794 1537 2939 
Q 1816 3084 2150 3084 
Q 2853 3084 3261 2657 
Q 3669 2231 3669 1497 
Q 3669 778 3244 343 
Q 2819 -91 2113 -91 
Q 1303 -91 875 529 
Q 447 1150 447 2328 
Q 447 3434 972 4092 
Q 1497 4750 2381 4750 
Q 2619 4750 2861 4703 
Q 3103 4656 3366 4563 
z
" transform="scale(0.015625)"/>
       </defs>
       <use xlink:href="#DejaVuSans-30"/>
       <use xlink:href="#DejaVuSans-2e" x="63.623047"/>
       <use xlink:href="#DejaVuSans-36" x="95.410156"/>
      </g>
     </g>
    </g>
    <g id="ytick_5">
     <g id="line2d_11">
      <g>
       <use xlink:href="#m383ed3120f" x="57.6" y="94.6944" style="stroke: #000000; stroke-width: 0.8"/>
      </g>
     </g>
     <g id="text_12">
      <!-- 0.8 -->
      <g transform="translate(34.696875 98.493619)scale(0.1 -0.1)">
       <defs>
        <path id="DejaVuSans-38" d="M 2034 2216 
Q 1584 2216 1326 1975 
Q 1069 1734 1069 1313 
Q 1069 891 1326 650 
Q 1584 409 2034 409 
Q 2484 409 2743 651 
Q 3003 894 3003 1313 
Q 3003 1734 2745 1975 
Q 2488 2216 2034 2216 
z
M 1403 2484 
Q 997 2584 770 2862 
Q 544 3141 544 3541 
Q 544 4100 942 4425 
Q 1341 4750 2034 4750 
Q 2731 4750 3128 4425 
Q 3525 4100 3525 3541 
Q 3525 3141 3298 2862 
Q 3072 2584 2669 2484 
Q 3125 2378 3379 2068 
Q 3634 1759 3634 1313 
Q 3634 634 3220 271 
Q 2806 -91 2034 -91 
Q 1263 -91 848 271 
Q 434 634 434 1313 
Q 434 1759 690 2068 
Q 947 2378 1403 2484 
z
M 1172 3481 
Q 1172 3119 1398 2916 
Q 1625 2713 2034 2713 
Q 2441 2713 2670 2916 
Q 2900 3119 2900 3481 
Q 2900 3844 2670 4047 
Q 2441 4250 2034 4250 
Q 1625 4250 1398 4047 
Q 1172 3844 1172 3481 
z
" transform="scale(0.015625)"/>
       </defs>
       <use xlink:href="#DejaVuSans-30"/>
       <use xlink:href="#DejaVuSans-2e" x="63.623047"/>
       <use xlink:href="#DejaVuSans-38" x="95.410156"/>
      </g>
     </g>
    </g>
    <g id="ytick_6">
     <g id="line2d_12">
      <g>
       <use xlink:href="#m383ed3120f" x="57.6" y="41.472" style="stroke: #000000; stroke-width: 0.8"/>
      </g>
     </g>
     <g id="text_13">
      <!-- 1.0 -->
      <g transform="translate(34.696875 45.271219)scale(0.1 -0.1)">
       <use xlink:href="#DejaVuSans-31"/>
       <use xlink:href="#DejaVuSans-2e" x="63.623047"/>
       <use xlink:href="#DejaVuSans-30" x="95.410156"/>
      </g>
     </g>
    </g>
    <g id="text_14">
     <!-- utilization -->
     <g transform="translate(28.617187 199.089719)rotate(-90)scale(0.1 -0.1)">
      <defs>
       <path id="DejaVuSans-6c" d="M 603 4863 
L 1178 4863 
L 1178 0 
L 603 0 
L 603 4863 
z
" transform="scale(0.015625)"/>
       <path id="DejaVuSans-7a" d="M 353 3500 
L 3084 3500 
L 3084 2975 
L 922 459 
L 3084 459 
L 3084 0 
L 275 0 
L 275 525 
L 2438 3041 
L 353 3041 
L 353 3500 
z
" transform="scale(0.015625)"/>
       <path id="DejaVuSans-61" d="M 2194 1759 
Q 1497 1759 1228 1600 
Q 959 1441 959 1056 
Q 959 750 1161 570 
Q 1363 391 1709 391 
Q 2188 391 2477 730 
Q 2766 1069 2766 1631 
L 2766 1759 
L 2194 1759 
z
M 3341 1997 
L 3341 0 
L 2766 0 
L 2766 531 
Q 2569 213 2275 61 
Q 1981 -91 1556 -91 
Q 1019 -91 701 211 
Q 384 513 384 1019 
Q 384 1609 779 1909 
Q 1175 2209 1959 2209 
L 2766 2209 
L 2766 2266 
Q 2766 2663 2505 2880 
Q 2244 3097 1772 3097 
Q 1472 3097 1187 3025 
Q 903 2953 641 2809 
L 641 3341 
Q 956 3463 1253 3523 
Q 1550 3584 1831 3584 
Q 2591 3584 2966 3190 
Q 3341 2797 3341 1997 
z
" transform="scale(0.015625)"/>
       <path id="DejaVuSans-6e" d="M 3513 2113 
L 3513 0 
L 2938 0 
L 2938 2094 
Q 2938 2591 2744 2837 
Q 2550 3084 2163 3084 
Q 1697 3084 1428 2787 
Q 1159 2491 1159 1978 
L 1159 0 
L 581 0 
L 581 3500 
L 1159 3500 
L 1159 2956 
Q 1366 3272 1645 3428 
Q 1925 3584 2291 3584 
Q 2894 3584 3203 3211 
Q 3513 2838 3513 2113 
z
" transform="scale(0.015625)"/>
      </defs>
      <use xlink:href="#DejaVuSans-75"/>
      <use xlink:href="#DejaVuSans-74" x="63.378906"/>
      <use xlink:href="#DejaVuSans-69" x="102.587891"/>
      <use xlink:href="#DejaVuSans-6c" x="130.371094"/>
      <use xlink:href="#DejaVuSans-69" x="158.154297"/>
      <use xlink:href="#DejaVuSans-7a" x="185.9375"/>
      <use xlink:href="#DejaVuSans-61" x="238.427734"/>
      <use xlink:href="#DejaVuSans-74" x="299.707031"/>
      <use xlink:href="#DejaVuSans-69" x="338.916016"/>
      <use xlink:href="#DejaVuSans-6f" x="366.699219"/>
      <use xlink:href="#DejaVuSans-6e" x="427.880859"/>
     </g>
    </g>
   </g>
   <g id="line2d_13">
    <path d="M 73.832727 200.944569 
L 74.918528 210.340561 
L 76.00433 218.439092 
L 77.090131 225.317941 
L 78.175932 231.054889 
L 79.261733 235.727717 
L 80.347534 239.414205 
L 81.433335 242.192134 
L 82.519137 244.139284 
L 83.604938 245.333436 
L 84.690739 245.852371 
L 85.77654 245.773869 
L 86.862341 245.175711 
L 87.948142 244.135677 
L 89.033943 242.731548 
L 90.119745 241.041105 
L 92.291347 237.112398 
L 95.54875 231.016494 
L 96.634552 229.241556 
L 97.720353 227.724769 
L 98.806154 226.543912 
L 99.891955 225.776765 
L 100.977756 225.501095 
L 102.063557 225.760544 
L 103.149358 226.492284 
L 104.23516 227.612778 
L 105.320961 229.038487 
L 107.492563 232.4714 
L 110.749967 237.82144 
L 111.835768 239.324147 
L 112.921569 240.547306 
L 114.00737 241.407377 
L 115.093171 241.826894 
L 116.178972 241.810805 
L 117.264773 241.423453 
L 118.350575 240.730492 
L 119.436376 239.797578 
L 121.607978 237.474508 
L 124.865382 233.831617 
L 125.951183 232.837728 
L 127.036984 232.063468 
L 128.122785 231.574406 
L 129.208586 231.406944 
L 130.294387 231.525991 
L 131.380189 231.885704 
L 132.46599 232.440237 
L 134.637592 233.950383 
L 138.980797 237.291342 
L 140.066598 237.92596 
L 141.152399 238.388638 
L 142.2382 238.637975 
L 143.324001 238.67712 
L 144.409802 238.534918 
L 145.495604 238.240528 
L 147.667206 237.311808 
L 154.182013 233.905404 
L 155.267814 233.553251 
L 156.353615 233.32666 
L 158.525217 233.203357 
L 160.69682 233.426716 
L 162.868422 233.884928 
L 169.383229 235.552072 
L 172.640632 236.020407 
L 175.898036 236.25384 
L 191.099252 236.995313 
L 196.528258 237.238711 
L 201.957264 237.253238 
L 216.072679 236.980621 
L 219.330082 236.712813 
L 222.587486 236.194168 
L 225.844889 235.39344 
L 230.188094 234.278504 
L 232.359696 233.891056 
L 234.531298 233.729719 
L 236.702901 233.878585 
L 238.874503 234.363357 
L 241.046105 235.096338 
L 249.732514 238.495875 
L 251.904117 238.984807 
L 254.075719 239.265959 
L 257.333123 239.395671 
L 261.676327 239.257696 
L 268.191134 239.028655 
L 273.62014 239.068833 
L 277.963344 239.301388 
L 283.39235 239.635534 
L 286.649754 239.564943 
L 288.821356 239.296279 
L 290.992958 238.790533 
L 293.164561 238.059322 
L 299.679368 235.634783 
L 301.85097 235.140322 
L 304.022572 234.998014 
L 306.194175 235.265278 
L 308.365777 235.824181 
L 313.794783 237.513371 
L 315.966385 237.912223 
L 317.052186 237.977358 
L 319.223788 237.779699 
L 321.395391 237.243434 
L 327.910198 235.180751 
L 330.0818 234.868012 
L 331.167601 234.870548 
L 333.339203 235.217883 
L 335.510806 235.909822 
L 338.768209 237.285043 
L 342.025613 238.641511 
L 344.197215 239.300113 
L 346.368817 239.623594 
L 348.54042 239.63139 
L 350.712022 239.386027 
L 353.969425 238.68013 
L 365.913238 235.550707 
L 369.170642 235.129241 
L 371.342244 235.048833 
L 373.513846 235.151827 
L 376.77125 235.581742 
L 381.114454 236.444201 
L 386.54346 237.505227 
L 389.800863 237.875738 
L 391.972466 237.922628 
L 394.144068 237.75945 
L 396.31567 237.343367 
L 398.487273 236.631546 
L 398.487273 236.631546 
" clip-path="url(#p9083cc9a9e)" style="fill: none; stroke: #ff0000; stroke-width: 1.5; stroke-linecap: square"/>
   </g>
   <g id="line2d_14">
    <path d="M 73.832727 236.491046 
L 74.918528 242.755041 
L 76.00433 248.154061 
L 77.090131 252.739961 
L 78.175932 256.564593 
L 79.261733 259.679811 
L 80.347534 262.13747 
L 81.433335 263.989422 
L 82.519137 265.287523 
L 83.604938 266.083624 
L 84.690739 266.429581 
L 85.77654 266.377246 
L 86.862341 265.978474 
L 87.948142 265.285118 
L 89.033943 264.349032 
L 91.205546 261.956086 
L 96.634552 255.355704 
L 97.720353 254.344513 
L 98.806154 253.557274 
L 99.891955 253.045844 
L 100.977756 252.862063 
L 102.063557 253.035029 
L 103.149358 253.522856 
L 104.23516 254.269852 
L 105.320961 255.220325 
L 107.492563 257.508933 
L 110.749967 261.075627 
L 111.835768 262.077432 
L 112.921569 262.89287 
L 114.00737 263.466251 
L 115.093171 263.745929 
L 116.178972 263.735203 
L 117.264773 263.476968 
L 118.350575 263.014995 
L 120.522177 261.65491 
L 124.865382 258.415744 
L 125.951183 257.753152 
L 127.036984 257.236979 
L 128.122785 256.910937 
L 129.208586 256.799296 
L 130.294387 256.878661 
L 131.380189 257.118469 
L 133.551791 257.957163 
L 140.066598 261.145306 
L 141.152399 261.453759 
L 142.2382 261.619983 
L 143.324001 261.64608 
L 145.495604 261.355019 
L 147.667206 260.735872 
L 154.182013 258.464936 
L 156.353615 258.079107 
L 158.525217 257.996905 
L 160.69682 258.145811 
L 163.954223 258.639441 
L 169.383229 259.562714 
L 172.640632 259.874938 
L 176.983837 260.060706 
L 188.92765 260.431321 
L 196.528258 260.687141 
L 204.128866 260.674907 
L 218.244281 260.411624 
L 221.501684 260.128379 
L 224.759088 259.648898 
L 231.273895 258.569201 
L 233.445497 258.379225 
L 235.617099 258.368181 
L 237.788702 258.583766 
L 239.960304 258.998078 
L 244.303509 260.155246 
L 248.646713 261.302812 
L 250.818316 261.707401 
L 254.075719 262.038639 
L 257.333123 262.125114 
L 263.847929 261.9651 
L 271.448538 261.876256 
L 276.877543 262.011641 
L 284.478151 262.293088 
L 287.735555 262.166078 
L 289.907157 261.911939 
L 293.164561 261.234215 
L 299.679368 259.617855 
L 301.85097 259.288215 
L 304.022572 259.193343 
L 306.194175 259.371518 
L 309.451578 259.972094 
L 313.794783 260.870248 
L 315.966385 261.136149 
L 318.137987 261.148454 
L 320.30959 260.890693 
L 323.566993 260.212198 
L 327.910198 259.315168 
L 330.0818 259.106674 
L 332.253402 259.189544 
L 334.425005 259.547733 
L 337.682408 260.398127 
L 342.025613 261.622341 
L 344.197215 262.061409 
L 346.368817 262.277063 
L 348.54042 262.28226 
L 351.797823 261.986638 
L 356.141028 261.245006 
L 363.741636 259.854974 
L 366.999039 259.444587 
L 370.256443 259.239062 
L 373.513846 259.295885 
L 376.77125 259.582494 
L 383.286057 260.463341 
L 387.629261 260.969077 
L 390.886665 261.143177 
L 394.144068 261.0343 
L 396.31567 260.756912 
L 398.487273 260.282364 
L 398.487273 260.282364 
" clip-path="url(#p9083cc9a9e)" style="fill: none; stroke: #0000ff; stroke-width: 1.5; stroke-linecap: square"/>
   </g>
   <g id="line2d_15">
    <path d="M 73.832727 243.600341 
L 74.918528 249.237937 
L 76.00433 254.097055 
L 77.090131 258.224365 
L 78.175932 261.666533 
L 79.261733 264.47023 
L 80.347534 266.682123 
L 81.433335 268.34888 
L 82.519137 269.51717 
L 83.604938 270.233662 
L 84.690739 270.545023 
L 85.77654 270.497921 
L 86.862341 270.139027 
L 87.948142 269.515006 
L 89.033943 268.672529 
L 91.205546 266.518877 
L 96.634552 260.578534 
L 97.720353 259.668461 
L 98.806154 258.959947 
L 99.891955 258.499659 
L 100.977756 258.334257 
L 102.063557 258.489927 
L 103.149358 258.928971 
L 104.23516 259.601267 
L 106.406762 261.445124 
L 110.749967 265.726464 
L 111.835768 266.628088 
L 112.921569 267.361983 
L 114.00737 267.878026 
L 115.093171 268.129736 
L 116.178972 268.120083 
L 117.264773 267.887672 
L 118.350575 267.471895 
L 120.522177 266.247819 
L 124.865382 263.33257 
L 125.951183 262.736237 
L 127.036984 262.271681 
L 128.122785 261.978243 
L 129.208586 261.877766 
L 130.294387 261.949195 
L 131.380189 262.165022 
L 133.551791 262.919847 
L 140.066598 265.789176 
L 141.152399 266.066783 
L 142.2382 266.216385 
L 144.409802 266.154551 
L 146.581405 265.727463 
L 149.838808 264.708127 
L 153.096212 263.654199 
L 155.267814 263.165551 
L 157.439416 262.962413 
L 159.611019 263.000815 
L 162.868422 263.364557 
L 170.46903 264.478372 
L 174.812235 264.750676 
L 197.614059 265.388229 
L 207.386269 265.330271 
L 218.244281 265.128861 
L 222.587486 264.750101 
L 228.016491 263.918094 
L 231.273895 263.470681 
L 234.531298 263.271431 
L 236.702901 263.360751 
L 238.874503 263.651614 
L 242.131906 264.348259 
L 248.646713 265.930931 
L 251.904117 266.424484 
L 255.16152 266.639134 
L 259.504725 266.64511 
L 271.448538 266.447031 
L 277.963344 266.614433 
L 284.478151 266.822179 
L 287.735555 266.70787 
L 290.992958 266.30792 
L 294.250362 265.619195 
L 299.679368 264.41447 
L 301.85097 264.117793 
L 304.022572 264.032408 
L 306.194175 264.192767 
L 309.451578 264.733285 
L 313.794783 265.541623 
L 315.966385 265.780934 
L 318.137987 265.792009 
L 320.30959 265.560024 
L 323.566993 264.949378 
L 327.910198 264.142051 
L 330.0818 263.954407 
L 332.253402 264.02899 
L 334.425005 264.35136 
L 337.682408 265.116714 
L 342.025613 266.218507 
L 344.197215 266.613668 
L 346.368817 266.807756 
L 348.54042 266.812434 
L 351.797823 266.546374 
L 356.141028 265.878906 
L 363.741636 264.627876 
L 368.08484 264.173519 
L 371.342244 264.0629 
L 374.599647 264.191858 
L 378.942852 264.6273 
L 387.629261 265.630569 
L 390.886665 265.787259 
L 394.144068 265.68927 
L 396.31567 265.43962 
L 398.487273 265.012527 
L 398.487273 265.012527 
" clip-path="url(#p9083cc9a9e)" style="fill: none; stroke: #008000; stroke-width: 1.5; stroke-linecap: square"/>
   </g>
   <g id="line2d_16">
    <path d="M 73.832727 72.977251 
L 74.918528 93.648435 
L 76.00433 111.465202 
L 77.090131 126.59867 
L 78.175932 139.219956 
L 79.261733 149.500177 
L 80.347534 157.610451 
L 81.433335 163.721894 
L 82.519137 168.005625 
L 83.604938 170.63276 
L 84.690739 171.774416 
L 85.77654 171.601712 
L 86.862341 170.285764 
L 87.948142 167.99769 
L 89.033943 164.908607 
L 90.119745 161.189632 
L 92.291347 152.546476 
L 95.54875 139.135486 
L 96.634552 135.230624 
L 97.720353 131.893692 
L 98.806154 129.295806 
L 99.891955 127.608084 
L 100.977756 127.001609 
L 102.063557 127.572397 
L 103.149358 129.182226 
L 104.23516 131.647311 
L 105.320961 134.783871 
L 107.492563 142.33628 
L 110.749967 154.106368 
L 111.835768 157.412324 
L 112.921569 160.103272 
L 114.00737 161.995429 
L 115.093171 162.918366 
L 116.178972 162.88297 
L 117.264773 162.030796 
L 118.350575 160.506283 
L 119.436376 158.453873 
L 121.607978 153.343119 
L 124.865382 145.328757 
L 125.951183 143.142202 
L 127.036984 141.43883 
L 128.122785 140.362893 
L 129.208586 139.994476 
L 130.294387 140.256381 
L 131.380189 141.047749 
L 132.46599 142.267721 
L 133.551791 143.815439 
L 135.723393 147.490675 
L 137.894995 151.266589 
L 138.980797 152.940153 
L 140.066598 154.336311 
L 141.152399 155.354203 
L 142.2382 155.902745 
L 143.324001 155.988863 
L 144.409802 155.676021 
L 145.495604 155.028362 
L 146.581405 154.110033 
L 148.753007 151.717939 
L 153.096212 146.508064 
L 154.182013 145.491089 
L 155.267814 144.716353 
L 156.353615 144.217853 
L 157.439416 143.971513 
L 158.525217 143.946585 
L 159.611019 144.112322 
L 160.69682 144.437976 
L 162.868422 145.446041 
L 169.383229 149.113757 
L 171.554831 149.870396 
L 173.726434 150.360375 
L 176.983837 150.757131 
L 184.584445 151.371004 
L 196.528258 152.824365 
L 199.785661 152.891114 
L 205.214667 152.740686 
L 216.072679 152.256566 
L 218.244281 151.915158 
L 220.415883 151.358305 
L 222.587486 150.526371 
L 224.759088 149.398164 
L 230.188094 146.311909 
L 232.359696 145.459523 
L 233.445497 145.208243 
L 234.531298 145.104582 
L 235.617099 145.171798 
L 236.702901 145.432087 
L 237.788702 145.883229 
L 238.874503 146.498585 
L 241.046105 148.111144 
L 244.303509 151.069112 
L 247.560912 154.009255 
L 249.732514 155.590126 
L 251.904117 156.665776 
L 254.075719 157.28431 
L 256.247321 157.543857 
L 258.418924 157.542547 
L 261.676327 157.266132 
L 266.019532 156.868688 
L 269.276935 156.736981 
L 272.534339 156.787593 
L 275.791742 157.053235 
L 280.134947 157.719342 
L 283.39235 158.097375 
L 285.563953 158.077004 
L 287.735555 157.704858 
L 288.821356 157.351014 
L 289.907157 156.866199 
L 292.07876 155.482227 
L 294.250362 153.713047 
L 298.593566 150.049617 
L 300.765169 148.671075 
L 301.85097 148.207908 
L 302.936771 147.938453 
L 304.022572 147.89483 
L 305.108373 148.088003 
L 306.194175 148.482811 
L 308.365777 149.712399 
L 313.794783 153.428617 
L 314.880584 153.952089 
L 315.966385 154.30609 
L 317.052186 154.449388 
L 318.137987 154.346699 
L 319.223788 154.014538 
L 320.30959 153.496088 
L 322.481192 152.073941 
L 326.824396 148.903992 
L 327.910198 148.296853 
L 328.995999 147.850663 
L 330.0818 147.608826 
L 331.167601 147.614407 
L 332.253402 147.882296 
L 333.339203 148.378542 
L 334.425005 149.06432 
L 336.596607 150.849182 
L 342.025613 155.910525 
L 343.111414 156.714925 
L 344.197215 157.359449 
L 345.283016 157.810675 
L 346.368817 158.071106 
L 347.454618 158.157901 
L 348.54042 158.088257 
L 349.626221 157.879377 
L 351.797823 157.112705 
L 353.969425 155.995486 
L 357.226829 153.963384 
L 361.570033 151.251565 
L 363.741636 150.078213 
L 365.913238 149.110755 
L 368.08484 148.412236 
L 370.256443 148.045703 
L 372.428045 148.071679 
L 374.599647 148.479479 
L 376.77125 149.179031 
L 380.028653 150.56925 
L 385.457659 153.010007 
L 387.629261 153.754753 
L 389.800863 154.225824 
L 391.972466 154.328983 
L 393.058267 154.213145 
L 394.144068 153.96999 
L 395.229869 153.587738 
L 396.31567 153.054608 
L 397.401472 152.358822 
L 398.487273 151.4886 
L 398.487273 151.4886 
" clip-path="url(#p9083cc9a9e)" style="fill: none; stroke: #000000; stroke-width: 1.5; stroke-linecap: square"/>
   </g>
   <g id="patch_3">
    <path d="M 57.6 307.584 
L 57.6 41.472 
" style="fill: none; stroke: #000000; stroke-width: 0.8; stroke-linejoin: miter; stroke-linecap: square"/>
   </g>
   <g id="patch_4">
    <path d="M 414.72 307.584 
L 414.72 41.472 
" style="fill: none; stroke: #000000; stroke-width: 0.8; stroke-linejoin: miter; stroke-linecap: square"/>
   </g>
   <g id="patch_5">
    <path d="M 57.6 307.584 
L 414.72 307.584 
" style="fill: none; stroke: #000000; stroke-width: 0.8; stroke-linejoin: miter; stroke-linecap: square"/>
   </g>
   <g id="patch_6">
    <path d="M 57.6 41.472 
L 414.72 41.472 
" style="fill: none; stroke: #000000; stroke-width: 0.8; stroke-linejoin: miter; stroke-linecap: square"/>
   </g>
   <g id="legend_1">
    <g id="patch_7">
     <path d="M 337.7325 108.1845 
L 407.72 108.1845 
Q 409.72 108.1845 409.72 106.1845 
L 409.72 48.472 
Q 409.72 46.472 407.72 46.472 
L 337.7325 46.472 
Q 335.7325 46.472 335.7325 48.472 
L 335.7325 106.1845 
Q 335.7325 108.1845 337.7325 108.1845 
z
" style="fill: #ffffff; opacity: 0.8; stroke: #cccccc; stroke-linejoin: miter"/>
    </g>
    <g id="line2d_17">
     <path d="M 339.7325 54.570438 
L 349.7325 54.570438 
L 359.7325 54.570438 
" style="fill: none; stroke: #ff0000; stroke-width: 1.5; stroke-linecap: square"/>
    </g>
    <g id="text_15">
     <!-- U(1) -->
     <g transform="translate(367.7325 58.070438)scale(0.1 -0.1)">
      <defs>
       <path id="DejaVuSans-55" d="M 556 4666 
L 1191 4666 
L 1191 1831 
Q 1191 1081 1462 751 
Q 1734 422 2344 422 
Q 2950 422 3222 751 
Q 3494 1081 3494 1831 
L 3494 4666 
L 4128 4666 
L 4128 1753 
Q 4128 841 3676 375 
Q 3225 -91 2344 -91 
Q 1459 -91 1007 375 
Q 556 841 556 1753 
L 556 4666 
z
" transform="scale(0.015625)"/>
      </defs>
      <use xlink:href="#DejaVuSans-55"/>
      <use xlink:href="#DejaVuSans-28" x="73.193359"/>
      <use xlink:href="#DejaVuSans-31" x="112.207031"/>
      <use xlink:href="#DejaVuSans-29" x="175.830078"/>
     </g>
    </g>
    <g id="line2d_18">
     <path d="M 339.7325 69.248563 
L 349.7325 69.248563 
L 359.7325 69.248563 
" style="fill: none; stroke: #0000ff; stroke-width: 1.5; stroke-linecap: square"/>
    </g>
    <g id="text_16">
     <!-- U(2) -->
     <g transform="translate(367.7325 72.748563)scale(0.1 -0.1)">
      <use xlink:href="#DejaVuSans-55"/>
      <use xlink:href="#DejaVuSans-28" x="73.193359"/>
      <use xlink:href="#DejaVuSans-32" x="112.207031"/>
      <use xlink:href="#DejaVuSans-29" x="175.830078"/>
     </g>
    </g>
    <g id="line2d_19">
     <path d="M 339.7325 83.926688 
L 349.7325 83.926688 
L 359.7325 83.926688 
" style="fill: none; stroke: #008000; stroke-width: 1.5; stroke-linecap: square"/>
    </g>
    <g id="text_17">
     <!-- U(3) -->
     <g transform="translate(367.7325 87.426688)scale(0.1 -0.1)">
      <defs>
       <path id="DejaVuSans-33" d="M 2597 2516 
Q 3050 2419 3304 2112 
Q 3559 1806 3559 1356 
Q 3559 666 3084 287 
Q 2609 -91 1734 -91 
Q 1441 -91 1130 -33 
Q 819 25 488 141 
L 488 750 
Q 750 597 1062 519 
Q 1375 441 1716 441 
Q 2309 441 2620 675 
Q 2931 909 2931 1356 
Q 2931 1769 2642 2001 
Q 2353 2234 1838 2234 
L 1294 2234 
L 1294 2753 
L 1863 2753 
Q 2328 2753 2575 2939 
Q 2822 3125 2822 3475 
Q 2822 3834 2567 4026 
Q 2313 4219 1838 4219 
Q 1578 4219 1281 4162 
Q 984 4106 628 3988 
L 628 4550 
Q 988 4650 1302 4700 
Q 1616 4750 1894 4750 
Q 2613 4750 3031 4423 
Q 3450 4097 3450 3541 
Q 3450 3153 3228 2886 
Q 3006 2619 2597 2516 
z
" transform="scale(0.015625)"/>
      </defs>
      <use xlink:href="#DejaVuSans-55"/>
      <use xlink:href="#DejaVuSans-28" x="73.193359"/>
      <use xlink:href="#DejaVuSans-33" x="112.207031"/>
      <use xlink:href="#DejaVuSans-29" x="175.830078"/>
     </g>
    </g>
    <g id="line2d_20">
     <path d="M 339.7325 98.604813 
L 349.7325 98.604813 
L 359.7325 98.604813 
" style="fill: none; stroke: #000000; stroke-width: 1.5; stroke-linecap: square"/>
    </g>
    <g id="text_18">
     <!-- U(total) -->
     <g transform="translate(367.7325 102.104813)scale(0.1 -0.1)">
      <use xlink:href="#DejaVuSans-55"/>
      <use xlink:href="#DejaVuSans-28" x="73.193359"/>
      <use xlink:href="#DejaVuSans-74" x="112.207031"/>
      <use xlink:href="#DejaVuSans-6f" x="151.416016"/>
      <use xlink:href="#DejaVuSans-74" x="212.597656"/>
      <use xlink:href="#DejaVuSans-61" x="251.806641"/>
      <use xlink:href="#DejaVuSans-6c" x="313.085938"/>
      <use xlink:href="#DejaVuSans-29" x="340.869141"/>
     </g>
    </g>
   </g>
  </g>
 </g>
 <defs>
  <clipPath id="p9083cc9a9e">
   <rect x="57.6" y="41.472" width="357.12" height="266.112"/>
  </clipPath>
 </defs>
</svg>
